<svg xmlns="http://www.w3.org/2000/svg" id="magnify" viewBox="0 0 200 200"><g id="path"><path d="M191.7,191.6a12.9,12.9,0,0,1-5.1,3,12.8,12.8,0,0,1-13.1-3.3l-63.2-65a4.7,4.7,0,0,1-1.3-3.6H109a3.4,3.4,0,0,1-.9-2l-.5-.4a3.4,3.4,0,0,1-.5-4.1l-5.4-5.5a3.4,3.4,0,0,1-4-.6l-.4-.5-1.1-.3a57.1,57.1,0,1,1,16.2-15.9,3.4,3.4,0,0,1,.4,1.2l.5.4a3.4,3.4,0,0,1,.3,4.4l5.3,5.4a3.4,3.4,0,0,1,4.4.4l.4.5a3.4,3.4,0,0,1,2,1l.3.3a4.7,4.7,0,0,1,3,1.4l63.2,65a12.8,12.8,0,0,1,2.9,13.2A12.9,12.9,0,0,1,191.7,191.6ZM29.9,25.2a50.3,50.3,0,1,0,71.2,1A50.4,50.4,0,0,0,29.9,25.2Z" fill="none" class="mag-outline mag-outline-move" stroke="#e9b370" stroke-width="3px"/></g> <path id="unit" d="M118,106.8l-6.5,6.3-6.7-6.9,6.5-6.3Zm-14.2.4,6.7,6.9.4-.4-6.7-6.9Zm6.5,14.2.7.4,13.4-13a1.5,1.5,0,0,0-2.4-.8,1.5,1.5,0,0,0-2.5-1.4l-1,.9h0l-9,8.7h0l-.7.7a1.5,1.5,0,0,0,1.4,2.5A1.5,1.5,0,0,0,110.3,121.4Zm-8-12.7,6.7,6.9,1.3-1.2-6.7-6.9Zm2.2-85.9a55.4,55.4,0,0,1,5.2,70.8l.5.3a1.5,1.5,0,0,1,0,2,1.5,1.5,0,0,1,1.4,2.5l-1,.9-9,8.7-.7.7a1.5,1.5,0,0,1-2.5-1.4,1.5,1.5,0,0,1-2-.1l-.3-.5a55.3,55.3,0,1,1,8.3-84.1Zm-2.2,2.1a52.3,52.3,0,1,0-1,73.9A52.3,52.3,0,0,0,102.4,24.8ZM111.7,125h0l2.3-5.7-2.9,2.9A2.7,2.7,0,0,0,111.7,125Zm12.9-16-9.6,9.3-2.8,7.1,1.5,1.5,4.4-11a.3.3,0,1,1,.5.2l-4.5,11.2,1.5,1.5,4.4-11a.3.3,0,1,1,.5.2L116,129.4l1.5,1.5,4.4-11a.3.3,0,0,1,.5.2l-4.5,11.2,1.5,1.5,4.4-11a.3.3,0,0,1,.5.2l-4.5,11.2,1.5,1.5,4.4-11a.3.3,0,1,1,.5.2l-4.5,11.2,1.5,1.5,4.4-11a.3.3,0,1,1,.5.2l-4.5,11.2,1.5,1.5,4.4-11a.3.3,0,1,1,.5.2l-4.5,11.2,1.5,1.5,4.4-11a.3.3,0,0,1,.5.2l-4.5,11.2,1.5,1.5,4.4-11a.3.3,0,1,1,.5.2l-4.5,11.2,1.5,1.5,4.4-11a.3.3,0,1,1,.5.2l-4.5,11.2,1.5,1.5,4.4-11a.3.3,0,0,1,.5.2l-4.5,11.2,1.5,1.5,4.4-11a.3.3,0,0,1,.5.2L135.1,149l1.5,1.5,4.4-11a.3.3,0,0,1,.5.2L137,151l1.5,1.5,4.4-11a.3.3,0,1,1,.5.2L138.9,153l1.5,1.5,4.4-11a.3.3,0,0,1,.5.2l-4.5,11.2,1.5,1.5,4.4-11a.3.3,0,0,1,.5.2l-4.5,11.2,1.5,1.5,4.4-11a.3.3,0,0,1,.5.2l-4.5,11.2,1.5,1.5,4.4-11a.3.3,0,0,1,.5.2l-4.5,11.2,1.5,1.5,4.4-11a.3.3,0,0,1,.5.2l-4.5,11.2,1.5,1.5,4.4-11a.3.3,0,0,1,.5.2l-4.5,11.2,1.5,1.5,4.4-11a.3.3,0,0,1,.5.2l-4.5,11.2,1.5,1.5,4.4-11a.3.3,0,0,1,.5.2l-4.5,11.2,1.5,1.5,4.4-11a.3.3,0,0,1,.5.2l-4.5,11.2,1.5,1.5,4.4-11a.3.3,0,0,1,.5.2L158,172.6l1.5,1.5,4.4-11a.3.3,0,0,1,.5.2l-4.5,11.2,1.5,1.5,4.4-11a.3.3,0,1,1,.5.2l-4.5,11.2,1.5,1.5,4.4-11a.3.3,0,0,1,.5.2l-4.5,11.2,1.5,1.5,4.4-11a.3.3,0,0,1,.5.2l-4.5,11.2,1.5,1.5,4.4-11a.3.3,0,0,1,.5.2l-4.5,11.2L169,184l4.4-11a.3.3,0,0,1,.5.2l-4.5,11.2,1.5,1.5,4.4-11a.3.3,0,0,1,.5.2l-4.5,11.2,1.5,1.5,4.4-11a.3.3,0,0,1,.5.2l-4.5,11.2,1.5,1.5,4.4-11a.3.3,0,0,1,.5.2l-4.5,11.2,1.6,1.3,4.3-10.7a.3.3,0,1,1,.5.2l-4.3,10.8,1.8.8,3.9-9.9a.3.3,0,1,1,.5.2l-3.9,9.8,1.9.4,3.4-8.5a.3.3,0,1,1,.5.2l-3.3,8.3h2.1l2.6-6.5a.3.3,0,1,1,.5.2l-2.5,6.2,1.2-.3,1.2-.4,1.5-3.7a.3.3,0,0,1,.5.2L188,192a11,11,0,0,0,2.6-17.3l-63.2-65A2.7,2.7,0,0,0,124.6,109Z" fill="#1a1718"/></svg>