<svg id="bird" xmlns="http://www.w3.org/2000/svg" viewBox="0 0 334 200.5"><path d="M190.2,197.3h-.9L173,194.6h-.6a26,26,0,0,1-8.3-1.4l-42.3-6.7a5.5,5.5,0,0,1-4.6-6.3l7.3-46a5.5,5.5,0,0,1,2.2-3.6l1.1-.6-1.4-1.4a11.9,11.9,0,0,1-4.7-2l-1.5.2H119a18.2,18.2,0,0,1-8-3.6h-1.8a5.7,5.7,0,0,1-4.1-2,24.4,24.4,0,0,0-4.1-2.7c-5.5-2.7-7.7-6.5-8.6-9.5a15.4,15.4,0,0,1-10.1-5.3A16.5,16.5,0,0,1,71,95.7c-6.5-1.5-9-5-9.9-7.7C30.2,82.7,19.7,66.4,17.6,62.4c-6.9-8.7-8.3-14.8-8.2-18.3A5.7,5.7,0,0,1,15,38.5a5.6,5.6,0,0,1,2,.4A13.4,13.4,0,0,1,22.5,43a5.7,5.7,0,0,1,4.8,2.8c1.2,2.1,6,7.1,9.8,10.8l.6.7C46.8,69.7,70,74.5,72.8,75c7.3,0,10.7.8,11.7,1.1,11.4,2.8,28.7,7.4,30.8,8,15.1,2.1,25.3,4.2,30.2,5.4.1-.4.2-.9.3-1.5a5.5,5.5,0,0,1,.3-1.1,12,12,0,0,0,0-7.2c-1.5-3.6-.7-6.5.8-8.4a8.5,8.5,0,0,1,5.2-8,14.7,14.7,0,0,1,6-1.3c9.1,0,13.5,9,14,10.1l.3.8c3,10.6,7.3,11.4,8.6,11.4h.6c14-1.6,32.1-10.4,34.1-11.4,9.5-6.2,22.5-11.9,26.3-13.4s7.3-3.5,10-3.8c28.1-10.2,50.5-28.9,55.2-38,3-5.7,5.4-9.2,7.7-10.9a5.6,5.6,0,0,1,3.4-1.1,5.7,5.7,0,0,1,4.5,2.3,5.6,5.6,0,0,1,.9,5c-3.3,11-13.2,23.5-21,32.2a8.2,8.2,0,0,1-2.3,2.5l-2.8,2.9c-1.3,5.5-4.7,7.6-5.7,8.2a24.6,24.6,0,0,0-4.2,2.8l-.3.9A21.9,21.9,0,0,1,277.8,73a5.6,5.6,0,0,1-.9,3,18.5,18.5,0,0,1-6.4,6.1v.5c-.8,3.4-3.7,6-8.3,7.6a17.1,17.1,0,0,1-1.4,2.7c-1.8,3.1-5.9,5.5-9.3,6.9s-4.5,3.8-6.5,4.3l-2.1,2.6a5.7,5.7,0,0,1-1.4,1.2l-2.9,1.6a14.2,14.2,0,0,1-4.1,3.8,9.9,9.9,0,0,1-6,2.1h-1c-2.4,3.3-5.1,4.6-7.4,5l-.4.6c-2.5,3.9-5.4,4.7-7.4,4.7a7.4,7.4,0,0,1-3.3-.8l-.3.3-.5.4a11.3,11.3,0,0,1-3.1,1.6c7.3.3,15.4.8,17,.9h.9c16.9,0,19.6,6.2,19.7,9.8a5.6,5.6,0,0,1-.3,1.8,17.9,17.9,0,0,1-3.6,6.7,12.3,12.3,0,0,1,.8,2.2,5.6,5.6,0,0,1-.1,3.5c-2,5.4-4.6,8.1-7,9.4a5.7,5.7,0,0,1-.3,1.7,14.6,14.6,0,0,1-10.5,9.9,13.8,13.8,0,0,1-2.6,5.9,5.7,5.7,0,0,1-1.4,1.3,21,21,0,0,1-9.3,3.3l-.9,1.1a25,25,0,0,1-11.4,5.9l-.3,2.1a5.5,5.5,0,0,1-5.4,4.6Z" fill="none" stroke-width="3" stroke="#e9b370"></path> <path id="bird-2" data-name="bird" d="M164.2,73.6l.7,1.3c-1.3-.2-.5,1.8-1.8,1.5s-.8-.8-.8-1.4S163.2,73.5,164.2,73.6ZM320.7,12.1c-3.3,11-13.9,23.9-20.7,31.4a5,5,0,0,1-1.8,2l-3.6,3.7c-.9,5-3.8,6.7-4.4,7-4.4,2.5-5.5,3.8-5.7,4.2a2.6,2.6,0,0,1-.2,1c-2.2,5.5-6.9,8.6-10.1,10.1a2.6,2.6,0,0,1,0,2.9,15.4,15.4,0,0,1-7,6,2.6,2.6,0,0,1,.1,1.6c-.9,3.4-4.9,5.1-7.7,5.9a12.9,12.9,0,0,1-1.7,3.6c-1.5,2.8-6.2,5-8.4,6-2.6,2.7-4.7,4-6.4,4l-2.8,3.5-.6.6a14.9,14.9,0,0,1-3.3,1.7,10.6,10.6,0,0,1-3.7,3.7,7,7,0,0,1-4.3,1.6,6.8,6.8,0,0,1-2.4-.5c-2.6,4.5-5.5,5.5-7.6,5.5h-.6l-.3,1.2-.3.7c-1.4,2.2-3,3.3-4.8,3.3a5.1,5.1,0,0,1-3.5-1.6l-2.1,1.8-.2.2a8,8,0,0,1-4.7,1.5,8.5,8.5,0,0,1-2.5-.4,6.3,6.3,0,0,1-3.5,1.3c.4,1.7.7,3.3.9,4.5h1.7c7.9,0,22.5.9,23.7,1h1c14.9,0,16.6,4.8,16.7,6.9a2.7,2.7,0,0,1-.1.9,13.4,13.4,0,0,1-4.6,7.1,8.9,8.9,0,0,1,1.9,3.5,2.7,2.7,0,0,1-.1,1.6c-2.3,6.2-5.4,8.1-7.6,8.6l.3,1.1a2.7,2.7,0,0,1,0,1.6,11.7,11.7,0,0,1-10.4,8.3,11.5,11.5,0,0,1-2.3,6.6l-.7.6a17.3,17.3,0,0,1-9.2,2.9h-.5a2.7,2.7,0,0,1-.9,1.7,21.1,21.1,0,0,1-12.1,5.5l-.7,4.3a2.5,2.5,0,0,1-2.5,2.1h-.4l-16.7-2.7h-.8a23.4,23.4,0,0,1-7.6-1.4l-42.5-6.8a2.5,2.5,0,0,1-2.1-2.9l7.3-46a2.5,2.5,0,0,1,2.9-2.1l22.5,3.6c-.5-1.9-1.1-3.9-1.5-5.6h-1.2a14.7,14.7,0,0,1-3.3-.4,6.1,6.1,0,0,1-3.3.9c-2.7,0-5.5-1.5-7-2.5a7.8,7.8,0,0,1-2.5.4,7.3,7.3,0,0,1-6-3.4,9.3,9.3,0,0,1-5.9-2.7l-.4.3a2.7,2.7,0,0,1-1.5.4h-.6c-3.8-.8-6.4-2.2-7.8-4.1a5.6,5.6,0,0,1-2.4.5h-.2a2.7,2.7,0,0,1-1.9-.9,24.7,24.7,0,0,0-5-3.5c-5.9-2.9-7.3-7.1-7.5-9.8h-.9a12.4,12.4,0,0,1-10.1-5.1c-7.1-1.1-9.9-5.5-10.9-7.7-7.7-1.3-9.3-5.3-9.4-7.7-32.2-4.9-42.1-22-43.4-24.6-6.8-8.5-7.8-14.1-7.8-16.7A2.7,2.7,0,0,1,15,41.5l.9.2a11.8,11.8,0,0,1,5.3,4.6l1.2-.3a2.7,2.7,0,0,1,2.3,1.3c1.7,2.8,7.5,8.7,10.3,11.4l.3.3C45.4,72.9,70.3,77.6,72.5,78c7.4,0,10.6.8,11.2,1,11.7,2.9,29.4,7.6,31,8a288.6,288.6,0,0,1,32.7,6,15,15,0,0,0,1.4-4.6V88c1.7-4.3.1-8.9,0-9.3-1.3-3-.4-5.1,1-6.2-.4-3.9,1.9-5.8,3.3-6.3a11.8,11.8,0,0,1,4.9-1.1c7.2,0,10.9,7.5,11.3,8.3v.4C173,86,178.7,87.3,181,87.3h.9c14.9-1.7,33.7-11,35.2-11.7C227,69,240.9,63.1,243.6,62c2.3-2.7,7.2-3.2,8.9-3.3,29.4-10.6,52.1-29.7,57.2-39.5,2.7-5.3,5-8.5,6.8-9.9a2.6,2.6,0,0,1,1.6-.5h0a2.7,2.7,0,0,1,2.1,1.1A2.6,2.6,0,0,1,320.7,12.1ZM15.3,47h-.1v.3h.1S15.3,47.1,15.3,47Zm8,12-1.1-.6c-.1,0,.2.5.6,1.1Zm1.5,3.1,1.1-1.3-1.7-1.2-.7.8ZM27,64.4l1.3-1.7-1.7-1.2-1.2,1.6,1.4,1.7Zm1.6,3.8h0Zm.5-1.2.8-1.1,1-1.3-1.7-1.3L27.8,65l-.3.4Zm1.8,3.1,1.9-2.8.6-.9-1.7-1.3-1,1.4-1.5,2.1Zm2.6,2,2.1-3.3.2-.4L34.1,67l-.6.9-1.9,2.8Zm2.7,1.8,2.1-3.4L36.5,69l-.2.3-2.1,3.2ZM39,75.5,41,72.2,39.1,71,37,74.3ZM42,77l1.8-3.2-2-1.1L39.9,76Zm3,1.3,1.7-3.2-2.1-1-1.8,3.2Zm3.1,1.2,1.6-3.1-2.1-.9-1.7,3.2Zm3.1,1,1.4-2.9h0l-2.1-.8L49,79.8Zm3.2.9,1.1-2.4.2-.4h-.2l-2-.8v.2l-1.3,2.7Zm3.9-.9,1.2-2.7-2.7.6-.5,1-1,2.1,2.3.5ZM61.2,82l1.8-4.3h0l-1.7-.5-.5.4h-.1L59.1,81l-.6,1.4,2.3.5ZM64,83.4l1.9-4.9L63.8,78h0L62,82.5l-.2.6ZM66.8,85l2.1-5.7h0l-2.1-.5h0L65,83.6h0a.6.6,0,0,1,.6.7,4.8,4.8,0,0,0,0,.7h1.3Zm3.1.7,2-5.8h0l-2.1-.4h0l-2.1,5.7Zm1.7,5h0Zm.6.2h0Zm.8-4.5L75.1,80H72.9l-2.1,6Zm8,5.9.8-2.8h-.9c-.7,0-1.4.2-1.6,1s.7.8,1.1,1.2l.6.6Zm2.8,1.5L85,89.5H82.8l-.9,3.2v.4l1.9,1.5Zm2.5,2.8.3-1.3L88,90.1l-2.1-.5-1.2,4.6-.3,1ZM89,99.4l-.3.2H88c-.4.1-1.1,0-1.4.3l-.2.8h0l.5.5h1.8Zm.1-.3.5-2.3L91,90.5a4.7,4.7,0,0,1-2.1-.1l-1.3,5.2-.4,1.6A15.7,15.7,0,0,1,89,99Zm8.1,8.5-.2-.5v.5ZM199.1,146a1.5,1.5,0,0,0-1.2-1.7L181,141.6a10.3,10.3,0,0,1-.8,1.8h-.1l16.8,2.7-7.2,45.1h-3.9l-62.7-10,7.2-45.1,26.2,4.2a11.1,11.1,0,0,1-.5-2.1l-25.9-4.1h-.2a1.5,1.5,0,0,0-1.5,1.3l-7.3,46a1.5,1.5,0,0,0,1.2,1.7L190,193.2a1.5,1.5,0,0,0,1.7-1.2Zm-46.1-17.5h0Zm12.5,12.6,6.6,1a10.6,10.6,0,0,1,.1-2l-6.6-1A10.8,10.8,0,0,1,165.4,141.1Zm-.2,1a11.7,11.7,0,0,1-1.9,4.2l-2.4-3.1a13.2,13.2,0,0,1-.8-1.8,8.4,8.4,0,0,1-1.2,2.3l-1.7-2.2-.3-.6-24.8-3.9,28.3,29.8,34.5-19.8-15.5-2.5-1,1.3h0a8.3,8.3,0,0,1-.9-1.6h-.6l-.5,1.1-2.4,3.1a11.6,11.6,0,0,1-2.1-5.1Zm23.9,47,5.1-32.1-.3,1.3L165.2,165l-.8.5Zm-1.1.3v.5h.7Zm-1-.9-.4,1.2h.7l.2-.8Zm-58.4-35.7-.7,4.4,3.2-9.6-.6-.4Zm1.4-5.9-.4-.3-.5,3.1Zm-2.6,13.3-.7,4.4,5.4-16.4-.6-.4Zm-1.2,7.5-.7,4.4,7.7-23.2-.6-.4Zm-1.2,7.5-.6,3.7h.1l9.6-29.2-.6-.4Zm-.3,4.7h.7l.2-.6-.9.4Zm1.3-1.7,9.2-27.9-.6-.4-9.5,28.7ZM126,180h.7l.5-1.4-.9.4Zm1.6-2.6,8.8-26.6-.6-.4-9,27.4ZM155.3,163l-.6-.4-1.1,3.4.9-.4Zm-.2,2.4.9-.4.4-1.3-.2-.2-.4-.3Zm-.8-3.1-.6-.4-1.5,4.8.9-.4Zm-1.1-.7-.6-.4-2,6.1.9-.4Zm-1.1-.7-.6-.4-2.4,7.4.9-.4Zm-1.1-.7-.6-.4-2.8,8.7.9-.4Zm-1.1-.7-.6-.4-3.3,10.1.9-.4ZM149,159l-.6-.4L144.6,170l.9-.4Zm-1.1-.7-.6-.4-4.2,12.7.9-.4Zm-1.1-.7-.6-.4-4.6,14.1.9-.4Zm-1.1-.7-.6-.4-5,15.4.9-.4Zm-1.1-.7-.6-.4-5.5,16.7.9-.4Zm-1.1-.7-.6-.4-5.9,18,.9-.4Zm-1.1-.7-.6-.4-6.4,19.4.9-.4Zm-1.1-.7-.6-.4-6.8,20.7.9-.4Zm-1.1-.7-.6-.4-7.2,22,.9-.4Zm-1.1-.7-.6-.4-7.7,23.4.9-.4Zm-1.1-.7-.6-.4-8.1,24.7.9-.4Zm-1.1-.7-.6-.4-8.6,26,.9-.4Zm-10.2,28.7h.7l.7-2.3-.9.4Zm1.2.2h.7l1-3.1-.9.4Zm1.2.2h.7l1.3-4-.9.4Zm1.2.2h.7l1.6-4.8-.9.4Zm1.2.2h.7l1.9-5.7-.9.4Zm1.2.2h.7l2.1-6.5-.9.4Zm1.2.2h.7l2.4-7.4-.9.4Zm1.2.2h.7l2.7-8.2-.9.4Zm1.2.2h.7l3-9.1-.9.4Zm1.2.2h.7l3.2-9.9-.9.4Zm1.2.2h.7l3.5-10.8-.9.4Zm1.2.2h.7l3.8-11.6-.9.4Zm1.2.2h.7l4.1-12.5-.9.4Zm1.2.2h.7l4.3-13.3-.9.4Zm1.2.2h.7l4.6-14.1-.9.4Zm1.2.2h.7l4.9-15-.9.4Zm1.2.2h.7l5.1-15.8-.9.4Zm1.2.2h.7l5.4-16.7-.9.4Zm1.2.2h.7l5.7-17.5-.9.4Zm1.2.2h.7l5.9-18.4-.9.4Zm6.7-19.4-.3-.4-.2.6Zm-5.5,19.6h.7l6-18.5-.4-.5h-.2Zm1.2.2h.7l5.7-17.7-.6-.6Zm1.2.2h.7l5.4-16.9-.6-.6Zm1.2.2h.7l5.7-17.7-.9.5Zm1.2.2h.7l6-18.8-.9.5Zm1.2.2h.7l5.9-18.4-.6-.5Zm1.2.2h.7l5.6-17.7-.6-.5Zm1.2.2h.7l5.4-16.9-.6-.5Zm1.2.2h.7l5.2-16.2-.6-.5Zm1.2.2h.7l4.9-15.5-.6-.5Zm1.2.2h.7l4.7-14.8-.6-.5Zm1.2.2h.7l4.4-14-.6-.5Zm1.2.2h.7l4.2-13.3-.6-.5Zm1.2.2h.7l4-12.6-.6-.5Zm1.2.2h.7l3.7-11.8-.6-.5Zm1.2.2h.7L174,176l-.6-.5Zm1.2.2h.7l3.2-10.4-.6-.5Zm1.2.2h.7l3-9.6-.6-.5Zm1.2.2h.7l2.8-8.9-.6-.5Zm1.2.2h.7l2.5-8.2-.6-.5Zm1.2.2h.7l2.3-7.4-.6-.5Zm1.2.2h.7l2.1-6.7-.6-.5Zm1.2.2h.7l1.8-6-.6-.5Zm1.2.2h.7l1.6-5.2-.6-.5Zm1.2.2h.7l1.4-4.5-.6-.5Zm1.2.2h.7l1.1-3.8-.6-.5Zm1.2.2h.7l.9-3-.6-.5Zm1.2.2h.7l.7-2.3-.6-.5Zm1.2.2h.7l.5-1.5-.6-.5ZM198,168.9a5.7,5.7,0,0,0-1.2-2.4l-.4,2.7.2.5c.2.4.8.4,1.2.3S198.2,169.3,198,168.9Zm2.7-9.6c.2-.4-.9-1-1.2-1a3.5,3.5,0,0,0-1.4.3l-.5,2.9c1,1.3,2.5,2.7,3,2.4S200.1,160.4,200.7,159.3Zm6.7,3.7c-.8-4.7-2.6-8.4-6.5-10.9-.3-.2-.5-.6-.9-.3a.6.6,0,0,0,0,1c1.1,1.1,2.3,4.8,3,5.5a14.6,14.6,0,0,1,2.2,2.5A4.3,4.3,0,0,0,207.4,163.1Zm16.3-16.8c-.9-2.3-2-2.7-5.4-1.9C220.3,145,221.7,146.1,223.7,146.2ZM196,123.5l-.2-.4v.5Zm61.7-35.8h-.8l.6.4h.1Zm6.5-7.5a.6.6,0,0,1-.2-.7l-.7.2Zm1.3.7a.6.6,0,0,0-.3-.3l-.7-.3h0Zm7-7.4-.6.8h0Zm.2-1.2-1-.9-2.8.4,3.7,1.8.3-.4A.7.7,0,0,0,272.6,72.5ZM282,61.8l-.3.6h0Zm4.2-6.3-3.8-1-.3-.3-1.9,1.1h.4l4.2,1.2Zm3.1-1.8-4.1-1H285l-1.7,1h.1l4.2,1.1ZM291,53h0Zm.8-1.3-1.4-.3h-.2c-.3.1-.7,1.3-1.1.1l.4-.3-1.6-.4h-.2l-1.6,1,4.8,1.2Zm-1.1-1.4,1.2-1.1-1.1-.2h-.3l-1.5,1.1Zm1.5.7h0l-.3.7Zm1.7-3.7h-.3l-.4-.3-1.2.9-.3.3h0l1.2.2h.1V48Zm.9-1-.9.9Zm1.1-1.2h0v-.2l-1.7,1.3h.7Zm1-1-.3.2h.1Zm4-11.4c-10.9,9.8-28.1,20.9-47.7,27.9h-.2c-.8,0-6.1.4-7.9,2.8l-.3.2c-1.7.7-16.4,6.8-26.6,13.5h-.1c-.4.2-4.2,2.1-9.6,4.3,1.1.9-2.1,2.3-2.7,3.3s-.8.8-1.1.6-8.1,1.4-9.2,2.7-2,0-3-1l-3.9,1,1.4,1.1h0a2.3,2.3,0,0,1-2.2,1.4c-2.5,1.3-4.1,3.1-4.2,6.1a9.2,9.2,0,0,1-.3,1.5c-.1.4-.1,1-.7.9s-.6-.6-.6-1-.3-2.7-2.1-2.6-2.7-.2-1.1,1.7.1,1.1-.6,1.1-2.3-.8-1.6-3.5-.2-2.6-2.2-2.3-2.9-1.1-2.5-2.3-.9-3.6-2.3-4.8-2.6-2.2.4-3.6l.6-.4a35.2,35.2,0,0,1-2.8-7.2h0c-.3-.6-3.5-7.2-9.5-7.2a9.8,9.8,0,0,0-4.1,1s-2.8.9-2,5a.6.6,0,0,1-.3.7c-.8.4-2.1,1.5-.9,4.2,0,0,2.1,5.5,0,10.8h0c-.1.6-1,5.9-2.8,6.4h-.3c-1.4-.4-12.6-3.4-33.3-6.2h-.1c-.9-.2-19.2-5.1-31.1-8.1a32.6,32.6,0,0,0-7.1-.8.7.7,0,0,1-.1.3l-2.1,6.3,2.2.4,1.8-5.7s.1-.3.1-.3a.4.4,0,0,1,.5-.2.5.5,0,0,1,.3.4,1.4,1.4,0,0,1-.1.4L77,87.1l2.2.3,1.4-4.8s.1-.3.1-.3a.4.4,0,0,1,.5-.2.5.5,0,0,1,.3.4,1.5,1.5,0,0,1-.1.4l-1.3,4.5,2.2.2,1-3.8s.1-.3.1-.3a.4.4,0,0,1,.5-.2.5.5,0,0,1,.3.4,1.6,1.6,0,0,1-.1.4l-1,3.5,2.1.2.7-2.8s.1-.3.1-.3a.4.4,0,0,1,.5-.2.5.5,0,0,1,.3.4,1.7,1.7,0,0,1-.1.4l-.7,2.5h.1l2,.3.5-1.9s.1-.3.1-.4a.4.4,0,0,1,.5-.2.5.5,0,0,1,.3.5,1.8,1.8,0,0,1-.1.4l-.4,1.8,2,.7.3-1.5s.1-.4.1-.4a.4.4,0,0,1,.5-.2.5.5,0,0,1,.3.5,2,2,0,0,1-.1.4l-.3,1.5.5.2-.6.3-1.6,6.9-.9,3.9a6.9,6.9,0,0,1,2.2.5l.7-3.2,1.9-9s.1-.4.1-.4a.4.4,0,0,1,.5-.2.5.5,0,0,1,.4.5,2.1,2.1,0,0,1-.1.4l-1.9,9-.7,3.3,2,1,.6-3.1,1.8-9.1s.1-.4.1-.4a.4.4,0,0,1,.5-.2.5.5,0,0,1,.4.5,2.2,2.2,0,0,1,0,.4L96.2,100l-.6,3.3.5.2.5.3a.6.6,0,0,1,.4.6,8.3,8.3,0,0,0,.2,2.7l1.1-5.9,1.7-9.3s.1-.4.1-.4a.4.4,0,0,1,.5-.3.5.5,0,0,1,.4.5,2.4,2.4,0,0,1,0,.4L99,101.5l-.9,5c.3-.1.6.2,1,.8a4.5,4.5,0,0,0,.9,1.2l1-5.9,1.6-9.4s.1-.4.1-.4a.4.4,0,0,1,.5-.3.5.5,0,0,1,.4.5,2.6,2.6,0,0,1,0,.5l-1.6,9.4-1,6.2a3.2,3.2,0,0,0,1.6.2h.5l.8-5.2,1.5-9.6s.1-.4.1-.4a.4.4,0,0,1,.5-.3.5.5,0,0,1,.4.5,2.8,2.8,0,0,1,0,.5l-1.5,9.6-.8,5.5,2.1,1,.7-5.2,1.4-9.7s0-.4.1-.4a.4.4,0,0,1,.5-.3.5.5,0,0,1,.4.5,3.1,3.1,0,0,1,0,.5l-1.4,9.7-.8,5.4,2.1.9.6-5,1.3-9.9s0-.4.1-.4a.4.4,0,0,1,.5-.3.5.5,0,0,1,.4.5,3.3,3.3,0,0,1,0,.5l-1.3,9.8-.7,5.2,2,.8.5-4.7,1.2-10s0-.4.1-.4a.4.4,0,0,1,.5-.3.5.5,0,0,1,.4.5,3.7,3.7,0,0,1,0,.5l-1.2,10-.6,4.9,2,.8.4-4.3,1-10.1s0-.4.1-.4a.4.4,0,0,1,.5-.3.5.5,0,0,1,.4.5,4,4,0,0,1,0,.5l-1,10.1-.5,4.5,2,.7.4-3.9.9-10.3s0-.4.1-.4a.4.4,0,0,1,.5-.4.5.5,0,0,1,.4.5,4.5,4.5,0,0,1,0,.5l-.9,10.3-.4,4.1,2,.7.3-3.5.8-10.4s0-.4.1-.4a.4.4,0,0,1,.5-.4.5.5,0,0,1,.4.5s0,.5,0,.5l-.8,10.4-.3,3.6,2,.6.2-2.9.7-10.6s0-.5,0-.5a.4.4,0,0,1,.5-.4.5.5,0,0,1,.4.5s0,.5,0,.5l-.7,10.6-.2,3.1,2,.6v-2.3l.6-10.7s0-.5,0-.5a.4.4,0,0,1,.5-.4.5.5,0,0,1,.4.5s0,.5,0,.5l-.6,10.7v2.4h2v-1.2l.5-10.9s0-.5,0-.5a.4.4,0,0,1,.5-.4.5.5,0,0,1,.5.5s0,.5,0,.5l-.5,10.8V119a2.6,2.6,0,0,1,.8,1.1,1.6,1.6,0,0,0,1.1,1v-2.2l.4-11s0-.5,0-.5a.5.5,0,0,1,.5-.4.5.5,0,0,1,.5.5s0,.5,0,.5l-.4,11v2.1l.9-.3,1.1-.3h0l.3-11.1s0-.5,0-.5a.5.5,0,0,1,.5-.4.5.5,0,0,1,.5.5s0,.5,0,.5l-.3,11.1h0a2.7,2.7,0,0,1,1.1.6l.8.5.2-11s0-.5,0-.5a.5.5,0,0,1,.5-.4.5.5,0,0,1,.5.5s0,.5,0,.5l-.2,11.2h1l.9-.2v-9.6s0-.5,0-.5a.5.5,0,0,1,.5-.5.5.5,0,0,1,.5.5s0,.5,0,.5v9.5a6.2,6.2,0,0,1,1.8.3v-8.5s0-.5,0-.5a.5.5,0,0,1,.5-.5.5.5,0,0,1,.5.5s0,.5,0,.5v8.8l1.5.8h.3v-8.5s0-.5,0-.5a.5.5,0,0,1,.5-.5.5.5,0,0,1,.5.5s0,.5,0,.5v8.6a2.3,2.3,0,0,1,1.8-1v-6.8a.5.5,0,0,1,.5-.5.5.5,0,0,1,.5.5v7l1.8.9-.2-6.6a.5.5,0,0,1,.5-.5.5.5,0,0,1,.5.5l.3,11.1a.5.5,0,0,1,0,.3v1.3c.4,1.7,1.1,4.5,1.9,7h.9a7.6,7.6,0,0,1,1.3-4.5,6.5,6.5,0,0,1,2,2.3,10.3,10.3,0,0,1,1.7-4.3s3.3,2,4.4,7.6v.4l6.8,1.1c1.1-5.3,4.3-7.1,4.3-7.1a10.3,10.3,0,0,1,1.7,4.3,6.5,6.5,0,0,1,2-2.3,8.2,8.2,0,0,1,1,6.6l16.7,2.7a2.5,2.5,0,0,1,2.1,2.9v.9a19.9,19.9,0,0,1,6.1,1.6c2.5,1.3,4.6,3.3,7.2,4.3a3.6,3.6,0,0,0-2-2.7c-1.4-.9-6.8-4.5-7.5-5.3a7.4,7.4,0,0,0-2.2-2.2,1.7,1.7,0,0,1-1.1-1.7c.2-.9,2.9-.1,3.5.1,3.8,1.3,8,1.3,11.8,2.8.5.2,1.5.2,1.8-.5s-.5-1.3-1.1-1.7c-2.3-1.3-4.5-2.8-7.3-3.2-1.1-.2-2.9-.8-2.8-2.2s2-1.5,3.1-1.5a31,31,0,0,1,7.5.7c1.4.4,9.2,1.2,11.6,1.7a13.9,13.9,0,0,0,3.8.1c-1.7.1-3.1-1-4.8-1.1s-2.7,0-2.7-1.4a2.5,2.5,0,0,1,1.6-2H222c-.6,0-15.6-1-23.6-1h-1.8l-.4-.2h-.7a.6.6,0,0,1-.6-.6c-.1-.7-.3-1.9-.6-3.3l-1.8-3.8-3.7-7.5a.5.5,0,0,1,.9-.4l3.7,7.5h.1a.6.6,0,0,1,.6-.7h0a3,3,0,0,1-1.1-2.2,21.1,21.1,0,0,1-.1-2.4h.6l-1.8-3.5-.2-.4v-.2a.5.5,0,0,1,.3-.5.5.5,0,0,1,.7.2l2.4,4.6a2.1,2.1,0,0,1,1,2v.3l.3.5.7,1.3h.2a7.5,7.5,0,0,1,1.2-2.7v-.2l-3.8-6.9-.2-.4V113a.5.5,0,0,1,.3-.5.5.5,0,0,1,.7.2l3.7,6.7h0a5.2,5.2,0,0,0,.4-1,3.8,3.8,0,0,1,.9-1.7l-3-5.2-.2-.4v-.2a.5.5,0,0,1,.3-.5.5.5,0,0,1,.7.2l3.1,5.4a5.2,5.2,0,0,1,2.7-.2l-3.8-6.2-.2-.4v-.2a.5.5,0,0,1,.3-.5.6.6,0,0,1,.7.2l3.9,6.4.3.5v.2l2.6-.6-.4-.7-.3-.5-4.2-6.4-.2-.3v-.2a.5.5,0,0,1,.3-.5.6.6,0,0,1,.7.2l4.1,6.3.3.5.8,1.3,2.4-.9-.9-1.4-.3-.4-4.3-6.3-.2-.3v-.2a.5.5,0,0,1,.3-.5.6.6,0,0,1,.7.2l4.2,6.1.3.5,1.3,1.9,2.2-1.2-1.2-1.7-.3-.4-4.4-6.1-.2-.3v-.2a.5.5,0,0,1,.3-.5.6.6,0,0,1,.7.2l4.3,6,.3.5,1.4,2h.1a5.3,5.3,0,0,1,1.9-1.3l-1.3-1.6-.3-.4-4.6-6-.2-.3v-.2a.5.5,0,0,1,.3-.5.6.6,0,0,1,.7.2l4.5,5.9.3.4,1.7,2.2,1-.2c.6-.1,1.2,0,1.5-.6l-2-2.5-.3-.4-4.7-5.9-.2-.3v-.2a.5.5,0,0,1,.3-.5.7.7,0,0,1,.7.2l4.6,5.7.3.4,2,2.4a6.5,6.5,0,0,1,1.8-1.6l-1.6-1.9-.3-.4-4.9-5.7-.2-.3v-.2a.5.5,0,0,1,.3-.5.7.7,0,0,1,.7.2l4.7,5.6.4.4,2,2.3,2.2-.7h.4l-2.3-2.5-.3-.4-5-5.6-.2-.3v-.2a.5.5,0,0,1,.3-.5.7.7,0,0,1,.7.2l4.9,5.4.4.4,2.9,3.2a7.4,7.4,0,0,0,2.5-.9l-3.2-3.4-.3-.4L222,95.1l-.2-.3v-.2a.5.5,0,0,1,.3-.5c.2-.1.7,0,.7.2l5,5.3.4.4,3.4,3.6,1.8-1.6-3-3-.4-.4-5.3-5.3-.2-.3v-.2a.5.5,0,0,1,.3-.5c.2-.1.7,0,.8.2l5.1,5.1.4.4,3.2,3.3,1.9-1.5-2.9-2.8-.4-.4-5.4-5.1-.2-.3v-.2a.5.5,0,0,1,.3-.5c.2-.1.7,0,.8.2l5.2,5,.4.4,3.2,3.1c.8-.3,1.3.2,1.7,1.3a1.2,1.2,0,0,1,.1.3l.4.4.3.3h.2a1,1,0,0,0,.5-1.6,1.3,1.3,0,0,1-.2-1.3l-3.9-3.5-.4-.3-5.5-5-.3-.3V89a.5.5,0,0,1,.3-.5c.2-.1.7,0,.8.2l5.4,4.9.4.4,4,3.6a8.8,8.8,0,0,0,1.5-1.9l-3.2-2.7-.4-.3L233,87.7l-.3-.3v-.2a.5.5,0,0,1,.4-.5c.2-.1.7,0,.8.2l5.5,4.7.4.4,3.1,2.7.4-.7a2.7,2.7,0,0,0,2.2.5l.4-.4L242,90.9l-.4-.3-5.8-4.7-.3-.3v-.2a.5.5,0,0,1,.4-.5c.2-.1.7,0,.8.2l5.6,4.6.4.3,3.9,3.2c.4-.7.7-1.4,1.1-2l-2.9-2.2-.4-.3L238.5,84l-.3-.3v-.2a.5.5,0,0,1,.4-.5c.2-.1.7,0,.8.1l5.8,4.4.4.3,3.1,2.4a3.6,3.6,0,0,0,1.9-1.4l-2.8-2-.4-.3-6.1-4.4-.3-.3v-.2a.5.5,0,0,1,.4-.5c.2-.1.7,0,.8.1l5.9,4.3.4.3,6.1,4.4.3.3,1,.2h.4l.3-.5.7-1.2h-.4l-2.1-1.5a10.6,10.6,0,0,1-2.9-.8l.6-.8-1.7-1.1-.4-.3L244,80.3l-.3-.3v-.2a.5.5,0,0,1,.4-.5c.1-.1.7,0,.8.1l6,4.1.4.3,1.7,1.2a6.1,6.1,0,0,1,1.8-1.4l-1.3-.9-.4-.3-6.3-4.1-.3-.3V78a.5.5,0,0,1,.4-.5c.1-.1.7,0,.8.1l6.2,4,.5.3,1.6,1a1.3,1.3,0,0,0-.2-1.4h1.7l-1-.6-.4-.3-6.5-3.9-.3-.3v-.2a.5.5,0,0,1,.4-.5c.1-.1.7,0,.8.1l6.3,3.9.5.3,2.3,1.4,3.9-.2-1.7-1c-.6.1-1.3,0-1.5-.6v-.3l-.7-.4-.4-.3-6.6-3.8-.3-.3v-.2a.5.5,0,0,1,.4-.5c.1-.1.8,0,.8.1l6.4,3.7.5.3.7.4.8-.3a4.3,4.3,0,0,0,1.2-.8l-.5-.3-.5-.3L255,73l-.3-.3v-.2a.5.5,0,0,1,.4-.5c.1-.1.8,0,.8.1l6.6,3.6.5.3.7.4.8-.7.8-.6h-.1l-.5-.2-6.9-3.5-.3-.3v-.2a.5.5,0,0,1,.4-.5c.1-.1.8,0,.8.1l6.7,3.4.5.3.7.4a2.7,2.7,0,0,1,2.8.6c.7.5,1.3-.2,2-.3L268,72.9l-.5-.2-7-3.4-.3-.3v-.2a.5.5,0,0,1,.4-.5c.1-.1.8,0,.8.1l6.5,3.1a6.3,6.3,0,0,1,1.8-.9h.3l-6.7-3-.3-.3v-.2a.5.5,0,0,1,.4-.5c.1-.1.8,0,.8.1l6.7,3a14.4,14.4,0,0,1,.7-1.6L266,65.6l-.3-.3v-.2a.5.5,0,0,1,.4-.5c.1-.1.8,0,.8.1l5.7,2.4,1.8-1.1-5.6-2.2-.3-.3v-.2a.5.5,0,0,1,.4-.5h.9l6,2.4,1.7-1.1-5.8-2.1c-.1,0-.3-.2-.3-.3v-.2a.5.5,0,0,1,.4-.5h.9l5.9,2.2h.4c.1,0,.2-.2.2-.4l2.3-.5-7-2.4c-.1,0-.3-.2-.3-.3v-.2a.5.5,0,0,1,.4-.5h.9l7.1,2.4.4-1a.7.7,0,0,0,0-.4h0c-.5-.3-1.1.1-1.6.9a2.1,2.1,0,0,1,.2-1.5L277,58.2c-.1,0-.3-.2-.3-.3v-.2a.5.5,0,0,1,.4-.5h.9l4.3,1.4,1.3-.9.2-.2-4-1.2c-.1,0-.3-.2-.3-.3v-.2l-6.8,3.6c-4,2-8.2,3.7-12.4,5.4-.5.2-24.8,8.3-26.2,7s-.7-1.9.5-2.6,14.4-4.9,17.7-6.5c1.3-.2,24.7-10.5,26.7-11.7s12.3-9.6,15.5-12A86.3,86.3,0,0,0,300.8,32.7ZM159.7,76.1h0Zm1.8,1.3a1.3,1.3,0,0,1,0-.4A.5.5,0,0,0,161.5,77.4Zm-7.4,4.3a3.4,3.4,0,0,0,1.9-1.7c1.3-.4,3.6-1.3,3.6-2.4s0-3-5.4-3.5c0,0-3.2-.2-3.5,3.8C150.8,77.9,151.9,80.9,154.2,81.8Z" fill="#120e0f"></path></svg>