<svg id="smith" xmlns="http://www.w3.org/2000/svg" viewBox="0 0 334 207.8"><path d="M265.1,197.2c-3.4.1-6.8-1.3-12.4-5.1l-1.2-.5c-4.6-3.1-9.9-6.9-15.8-11.3a195.7,195.7,0,0,1-16.6-12.8c-15.1-11.6-37.3-29-58.5-47.2L74.4,196.2a3,3,0,0,1-1.1.6l-1.4.4-1.9.3a7.1,7.1,0,0,1-6.9-9.5l.7-1.9a3,3,0,0,1,.8-1.2l83.9-75.1-4-3.6L44.7,166.6l-.8.3-.9.2-1.5.2a7.1,7.1,0,0,1-6.6-10.1h.1a3,3,0,0,1,1.1-1.2h.1l97-60.5L107.5,69.5,76,79.8a8.3,8.3,0,0,1-2.8.5c-2,.1-5.1-.4-9-3.2l-1.3-1-.3-.2-.5-.5-.4-.3-.5-.5-.4-.4-.5-.5-.6-.6-.6-.7-.6-.7-.4-.5-.6-.7L57,70l-.6-.8-.4-.5-1-1.4h-.1l-1-1.4-.4-.5L52.8,64l-.4-.6-.8-1.3-.4-.6-1.1-1.9h-.1a19.6,19.6,0,0,1-1.6-8.1,22.3,22.3,0,0,1,7.6-16.1l.2-.2,4.8-3.9a14.1,14.1,0,0,1,5.1-2.6l19.9-5.4a24.8,24.8,0,0,1,17-7.8h1.8a3.7,3.7,0,0,1,2.1.8l15.5,12.1a8.6,8.6,0,0,1,3.2,7.9l-.3,2.3v7c3.3,3.7,15.5,17.2,33.2,33.9l34.7-21.6c3.5-7.3,8.3-10.4,11.8-11.7a18,18,0,0,1,3.2-.9A24.6,24.6,0,0,1,219,23.3c7.3-5.3,16.3-6.7,22.6-6.9a58.1,58.1,0,0,1,9.2.4l15-8.9a7.9,7.9,0,0,1,9.8,1.5h.8a3,3,0,0,1,2.1,1.7l.3.6a8.4,8.4,0,0,1-2,9.4L264,33.4c.3,3.9.1,12.8-6,19.8s-11.1,11.5-23.7,11.9a65.2,65.2,0,0,1-9.2-.4c-3.1,7.5-12.5,11.5-15.6,12.7l-26.7,23.5c22.1,18.8,54.5,43.4,88,58.6a40.5,40.5,0,0,1,7.6,4.7c5.4,4.2,8.7,9.1,9.7,14.3a3.7,3.7,0,0,1-.2,2.1c-.5,1.4-5.6,13.3-15.1,14.9a23.9,23.9,0,0,0-3.3.8A16.2,16.2,0,0,1,265.1,197.2ZM224,46.5A28.2,28.2,0,0,0,235.2,49a11.9,11.9,0,0,0,6.7-2.1c8.2-5.9,9.7-12.5,9.9-15.1a7.4,7.4,0,0,1,.8-2.8h-.9c-3.6.4-15.7,2.1-22.4,6.4A11.8,11.8,0,0,0,224,46.5Z" fill="none" stroke-linecap="round" stroke-linejoin="round" stroke="#e9b370" stroke-width="3px"></path> <path id="cross" d="M285.2,179c-.9-4.4-3.9-8.8-8.6-12.5a37.3,37.3,0,0,0-7-4.4c-34.3-15.5-67.3-40.5-91.7-61.6l29.8-26.2s13.8-4.6,14.8-13.5c20.1,2.9,26-2.1,32.8-9.9s5-18.9,5-18.9l14.2-13.2a4.9,4.9,0,0,0,1.2-5.5h0L256.8,29.5a4,4,0,0,0-1.4,2.6c-.3,3.2-2,10.9-11.3,17.6s-23.3-.9-23.3-.9-2.4-10.2,6.8-16.2c7.1-4.6,18.8-6.4,23.9-7a10,10,0,0,0,4.6-1.8l17.1-12.1a4.4,4.4,0,0,0-5.4-.8l-16.1,9.5s-16.4-3.1-28.5,4.3a72,72,0,0,1,18.4-4.1c-33.8,5.8-28.8,27.6-28.8,27.6s-10.4-1.6-16.2,11.7L158.9,83.5c-20.8-19.5-34.6-35-36.2-36.9V38.2l.3-2.5a5.6,5.6,0,0,0-2.1-5.1l-3.7-2.9-.6-.4-1.8-1.4-9.5-7.4h-2a21.8,21.8,0,0,0-15.5,7.5L67.2,31.4a11.2,11.2,0,0,0-4.1,2.1l-2.7,2.1-2.2,1.7h0a19.4,19.4,0,0,0-6.6,14,16.7,16.7,0,0,0,1.3,6.7h0L54,60.1l.2.4v.2l.7,1.2.4.6.7,1.1v.2l.2.4.9,1.3h.1l1,1.3.3.3h.1l.6.8.4.5.6.7h.1l.3.4.6.7.6.6.6.6.4.4h.1l.4.4.5.4.3.3.5.4h.2l1.2.9c3.2,2.2,5.6,2.7,7.1,2.6a5.1,5.1,0,0,0,1.8-.3l33.4-10.9,29.9,30.3,2.1-1.3-38.1,23.7,91.3-54.3L91.4,128.8,59.2,145.6,38,158.8h0a3.6,3.6,0,0,0,4.1,5l.8-.2,101.6-61.5,8.9,8,2.1-1.9L67.1,187.4l-.7,1.8a3.6,3.6,0,0,0,4.4,4.6l1.3-.4L160.2,116c21.2,18.3,43.7,36.1,60.8,49.2a192.6,192.6,0,0,0,16.4,12.7c5.8,4.4,11,8.2,15.6,11.3h.6c6.1,4.2,8.9,5.1,11.3,5a13.4,13.4,0,0,0,3.7-.8,26.8,26.8,0,0,1,3.7-.9c8-1.3,12.6-12.6,12.8-13.1A.7.7,0,0,0,285.2,179ZM158.3,83.9l-2.1,1.3h-.1l1.4-1.9ZM157,82.7h0l-1.4,1.9-.8-.8,1.4-1.9Zm-1.3-1.3-1.4,1.9-.8-.8,1.4-1.9Zm-1.3-1.3L153,82.1l-.8-.8,1.4-1.9ZM153,78.9l-1.4,1.9-.8-.8,1.4-1.9-.4-.4Zm-1.3-1.3-1.4,1.9-.8-.8,1.4-1.9h0Zm-1.3-1.3L149,78.3l-.9-.9.2.2,1.4-1.8Zm-.9-.9-.4-.4L147.8,77l-.8-.8,1.4-1.8L148,74Zm-3-2.9-1.3,1.8.5.5,1.3-1.8.8.8-1.4,1.8-2-2.1,1.3-1.8-.5-.5L143.9,73l-.5-.6-.2-.2,1.3-1.7h0ZM143.9,70h0l-1.3,1.7-.8-.8,1.2-1.6-.5-.5-1.2,1.6-.8-.8,1.2-1.6-.2-.2Zm-2.5-2.5h-.1L140.2,69l-.7-.8,1.1-1.5-.5-.5L139,67.6l-.8-.9h.1l1.1-1.4h0Zm-2.6-2.7-1,1.4-.7-.8,1-1.3Zm-1.3-1.3-1,1.3-.7-.9.9-1.2h-.1Zm-1.3-1.3-.9,1.2-.7-.9.8-1.1h-.1ZM135,60.9l-.8,1.1-.7-.9.8-1Zm-1.3-1.3-.7,1-.7-.9.7-.9Zm-1.3-1.3h0l-.6.9-.7-.9.6-.8h0Zm-1.3-1.3h0l-.6.8-.7-.9.5-.7h0Zm-2-2.2.8.8-.5.6-.7-.9.4-.5Zm-1.2-1.3.8.8-.4.5-.7-.9Zm-2.5-2.7,2,2.2-.3.4-.7-.9.2-.3-.5-.5-.2.2-.7-.9Zm-1.2-1.4.8.8h-.1l-.7-.9ZM66.4,74.2c-3.5-2.5-7.9-7.2-12.9-16.4,0,0-4.9-10.5,5.2-19.9l2.2-1.7h0l1.3.8.4.3,1,.7.4.2,1.1.8c-3.1,1.1-11,5.1-9.6,15.4a26.9,26.9,0,0,0,6.8,14.1,8.7,8.7,0,0,0,12.9-.2c.5-.6.2-2.6.4-3.3S78.3,75.2,66.4,74.2ZM63.5,34.1h0a10.5,10.5,0,0,1,3.8-1.9l20.9-5.7s6.1-7.9,16.6-7.4l9.5,7.4L75.1,44.3C73.1,41.2,69.7,37.6,63.5,34.1ZM75.9,45.9l40.3-18,.6.5-40.7,18Zm.7,1.7h0l-.3-.8,42.7-16.7,1.4,1.1L90,42.7Zm67.1,43.3.9-1.4h-2.4l.9-1.4h-2.4l.9-1.4h-2.4l.9-1.4H138l.9-1.4h-2.4l.9-1.4h-2.4l.9-1.4h-2.4l.9-1.4h-2.4l.9-1.4h-2.4l.9-1.4h-2.4l.9-1.4h-2.4l.9-1.4h-2.4l.9-1.4H125l.9-1.4h-2.4l.9-1.4h-2.4L123,69h-2.4l.9-1.4h-2.4l.9-1.4h-2.4l.9-1.4h-2.4l.9-1.4h-2.4l.9-1.4h-2.4l.9-1.4H112l.9-1.4h-2.4l.9-1.4h-2.4l.9-1.4h-2.4l.9-1.4h-2.4l.9-1.4h-3.8c.1-.1,6.5-9.2,15.9-8A311.1,311.1,0,0,0,142,73.8c4,4.3,8.3,8.3,12.5,12.4l-9.1,5.7.8-1.2Zm132.5,76.4-2.5,1.5,1.6-2.2Zm-1.4-1.1-2.6,3.5-2.5,1.5,4.2-5.6Zm-1.5-1-5.1,6.9-1.1.6-.9-.7.4.3,5.8-7.8Zm-1.5-1-5.8,7.8-.9-.6,5.7-7.7Zm-2.6-1.4,1,.5-5.6,7.6-.9-.6,5.5-7.4Zm-.7-.3-5.4,7.3-.9-.6,5.3-7.1h-.1Zm-3.3-1.6h0l-5,6.7.6.4,5.1-6.8,1,.5-5.2,7h.2l-2.7-2h.1l4.9-6.6Zm-1.4-.7h-.3l-4.8,6.5-.9-.6,4.7-6.3Zm-1.9-.9-4.6,6.2-1.2-.9.3.2,4.5-6.1-.6-.3-4.4,6-.9-.6,4.3-5.8-.3-.2Zm-3.3-1.6-4.2,5.7-.9-.6,4.1-5.6-.4-.2Zm-1.6-.8-4.1,5.5-.9-.6,4-5.4Zm-1.1-.6-.5-.3-3.9,5.3.2.2-1.1-.8,3.8-5.2h-.2Zm-2.1-1.1-3.8,5.1-.9-.6,3.7-5Zm-1.1-.6-.5-.3-3.6,4.9.2.2-1.1-.8,3.5-4.8-.6-.3-3.5,4.7-.9-.6,3.4-4.6-.5-.3Zm-3.7-2-3.3,4.5-.9-.6L248,152Zm-1.6-.9-3.2,4.3-1.5-1.1.6.4,3.1-4.2Zm-1.6-.9-3.1,4.2-1.5-1.1.6.4,3-4.1Zm-1.6-.9h0l-3,4-.9-.6,2.9-3.9Zm-1.2-.7-.4-.2-2.9,3.9.4.3-1.3-1,2.8-3.8Zm-1.9-1.1-2.8,3.7.4.3-1.3-.9,2.7-3.7Zm-1.6-.9-2.7,3.6-.9-.6,2.6-3.5Zm-1.4-.8H238l-2.6,3.5.5.4-1.4-1,2.5-3.4Zm-1.7-1.1-2.5,3.4-.9-.6,2.5-3.3-.6-.4-2.4,3.3-.9-.6,2.4-3.2Zm-3.1-1.9-2.3,3.2-.9-.6,2.3-3.1Zm-1.5-1-2.3,3.1h.1l-1-.7,2.2-3Zm-1.5-1-2.2,3-.9-.6,2.2-2.9Zm-1.5-1-2.2,2.9-.9-.6,2.1-2.9-.6-.4-2.1,2.8-.9-.6,2.1-2.8Zm-2.7-1.8-.3-.2-2.1,2.8-.9-.6,2-2.7Zm-1.8-1.2-2,2.7-1.4-1,.5.4,2-2.7-.4-.2Zm-1.5-1-2,2.7-.9-.6,2-2.6-.4-.3Zm-1.5-1-2,2.6-1.4-1,.5.4,1.9-2.6-.6-.4-1.9,2.6-.9-.6,1.9-2.6Zm-3-2.1-1.9,2.6-.9-.6,1.9-2.5h0Zm-1.5-1-1.9,2.5.4.3-1.3-1,1.9-2.5Zm-1.5-1-1.9,2.5-.9-.6,1.9-2.5Zm-8.7-6.4-1.9,2.5.6.4,1.9-2.5,2.3,1.7-1.9,2.5.6.4,1.9-2.5-.2-.2,4.1,3-1.9,2.5-.9-.6,1.9-2.5-.6-.4-1.9,2.5-1.3-.9.4.3,1.9-2.5-.6-.4-1.9,2.5-5.6-4.1.3.2,1.9-2.5Zm-1.4-1.1-1.9,2.5-.9-.6,1.9-2.6Zm-1.4-1.1-1.9,2.6.3.2-1.2-.9,1.9-2.6Zm-1-.7-.5-.3-1.9,2.6-1.1-.8.2.2,1.9-2.6Zm-1.9-1.4-2,2.6-1.3-1,.4.3,2-2.7Zm-1.4-1.1-2,2.7-.9-.6,2-2.7Zm-1.4-1.1h0l-2,2.7-.9-.6,2.1-2.8-.2-.2Zm-1.4-1.1-2.1,2.8h.2l-1.1-.8,2.1-2.8-.2-.2Zm-1.4-1.1-2.1,2.8h.2l-1.1-.8,2.1-2.9-.5-.4-2.2,2.9-.9-.6,2.2-3Zm-2.8-2.3-2.2,3-1-.8h.1l2.2-3-.2-.2Zm-1.4-1.1-2.3,3.1-.9-.6,2.3-3.1Zm-1.4-1.1-2.3,3.1-.9-.6,2.4-3.2Zm-1-.8-.4-.3-2.4,3.2-.9-.6,2.4-3.3Zm-1.8-1.5-2.4,3.3-.8-.6h-.1l2.5-3.3h-.1Zm-1.4-1.2-2.4,3.3-.8-.8,2.4-3.2Zm-1.4-1.2-2.4,3.2-.8-.8,2.3-3.1Zm-1.4-1.2h0l-2.3,3.1-.8-.8,2.2-3-.4-.4Zm-1.4-1.2-2.2,3-.8-.8,2.2-2.9h0Zm-1.4-1.2-2.1,2.9-.8-.8,2.1-2.8Zm-3.4,1.6-.8-.8,2-2.7h0l.8.7Zm.3-3.4-1.6,2.2-.4-.4,2.1-1.9Zm28-42.7a6.5,6.5,0,0,1,10.7-4.5h0s-8.4-3.2-10.4,6.2C205.2,60.4,204.7,60.8,204.8,58.8Zm-5.4,10.1L170.9,94.5l-3.5-3.1-2-1.8ZM167.7,92.5l-1.5,2.1-.8-.8,1.5-2,2.2,2-1.6,2.1-.8-.8h0l1.6-2.1Zm-5-1.2.3-.3,2.3-1.4-.5.3.2.2-1.5,2-.9-.9h.1Zm2.8-.7-.4-.4,1.3,1.2-1.5,2-.8-.8Zm-7.3,13.8.9-1.4h-2.4l.9-1.4h-2.4l.9-1.4h-2.4l.9-1.4h-2.4l.9-1.4H152l8.8-5.3,6,5.8,1.5-1.3-.4-.4,1.6-2.2h0l.8.7-10.5,9.4Zm8.1-4.8,34.2-30.5.7.2-91.9,85.9Zm116,83.7-3.2,4.3a12.6,12.6,0,0,1-6.9,4.2c-7.7,1.3-6.9,5.5-23.7-7.2l-6.3-4.3-12.2-9.1-5.4-4.4.9-1.3h-2.4l.9-1.4h-2.4l.9-1.4h-2.4l.9-1.4h-2.4l.9-1.4h-2.4l.9-1.4H216l.9-1.4h-2.4l.9-1.4h-2.4l.9-1.4h-2.4l.9-1.4h-2.4l.9-1.4h-2.4l.9-1.4h-2.4l.9-1.4h-2.4l.9-1.4h-2.4l.9-1.4H203l.9-1.4h-2.4l.9-1.4h-2.4l.9-1.4h-2.4l.9-1.4h-2.4l.9-1.4h-2.4l.9-1.4h-2.4l.9-1.4h-2.4l.9-1.4h-2.4l.9-1.4H190l.9-1.4h-2.4l.9-1.4h-2.4l.9-1.4h-2.4l.9-1.4h-2.4l.9-1.4h-2.4l.9-1.4h-2.4l.9-1.4h-2.4l.9-1.4h-2.4l.9-1.4H177l.9-1.4h-2.4l.9-1.4h-2.4l.9-1.4h-2.4l.9-1.4h-2.4l.9-1.4h-2.4l.9-1.4h-2.4l.9-1.4h-2.4l.9-1.4h-2.1l-.2.2,8.9-7.8-1,.9,9,8.8a175.8,175.8,0,0,0,13.1,13.1c15,13.4,43.2,37.8,67.6,53.5a4.1,4.1,0,0,0,5-.4l14.8-4.9a15.9,15.9,0,0,1,1.7,4.5A31.8,31.8,0,0,1,282.3,183.3Zm-75.5-54.5-.6-.4,1.9-2.5.6.4Zm2.8,10.1h0Z" fill="#120e0f"></path></svg>