<svg id="pen" xmlns="http://www.w3.org/2000/svg" viewBox="0 0 334 207.8"><path d="M242.3,202.2a4,4,0,0,1-3.2-1.7,22,22,0,0,0-15.1-8.3,4,4,0,0,1-3.5-5.2l.7-2.2a31.2,31.2,0,0,0-2-4.2l-6-7.9a39.7,39.7,0,0,0-4.2-3.6,26.4,26.4,0,0,0-15.9-5.1,29.2,29.2,0,0,0-7.5.9l-1.1.2a4,4,0,0,1-3.2-6.4,27.4,27.4,0,0,1-9.9-11.8A4,4,0,0,1,173,142a7.9,7.9,0,0,0,3-5.2c-7.4,1.8-12,9.2-12,9.3a4,4,0,0,1-1.2,1.2,11.7,11.7,0,0,1-6.8,2.1c-7.1,0-13.4-5.9-14-6.6a4,4,0,0,1-1.2-2.8c-15.2-1.5-18.9-11.9-19.1-12.3v-.2l-1.8-.6c-4.7.5-11.1,2-16.1,6.1a5.8,5.8,0,0,0,.3,5.1,4,4,0,0,1-7.1,3.7c-.2-.3-3.8-6.9-.7-14.1,1.6-3.7,4.8-6.8,9.3-9.1A30.1,30.1,0,0,1,93.2,98.5a4,4,0,0,1,.1-1.5L91,95.3a4,4,0,0,1-1.5-3.7C71.4,80.4,76.9,55.7,76.9,55.4A4,4,0,0,1,78.5,53l-1-1.8a4,4,0,0,1,6.6-4.3l.6.7c-6.3-17.8,6.9-35.1,7.1-35.3A4,4,0,0,1,95,10.8h.6l1,.3c-.3-1.5-.4-2.5-.5-2.8a4,4,0,0,1,3-4.3h1a4,4,0,0,1,3.7,2.5c.1.3,11.8,27.4,45.9,57.6a129,129,0,0,1,11.9,12h0a4,4,0,0,1,5.2-1.9c1,.4,24.5,11.4,31.9,49.5a61.5,61.5,0,0,0,5.8,14.3l.8,1.6,40.1,56.4a4,4,0,0,1-3.3,6.3Z" fill="none" stroke-width="3" stroke="#e9b370"></path> <path id="quill" d="M242.3,200.7a2.5,2.5,0,0,1-2-1,23.6,23.6,0,0,0-16.2-9,2.5,2.5,0,0,1-2.2-3.2l.8-2.7a32.1,32.1,0,0,0-2.3-5l-6.1-8a41.8,41.8,0,0,0-4.4-3.8,27.9,27.9,0,0,0-16.8-5.4,30.3,30.3,0,0,0-7.9,1,2.5,2.5,0,0,1-3-1.4,2.5,2.5,0,0,1,1-3.2l.7-.4a26,26,0,0,1-11.2-12.2,2.5,2.5,0,0,1,1-3.2c.2-.1,3.8-2.4,3.9-8.3-9.3,1-14.9,10.2-15,10.3a2.5,2.5,0,0,1-.7.8,10.3,10.3,0,0,1-6,1.8c-6.6,0-12.7-5.9-13-6.1a2.5,2.5,0,0,1-.5-2.9v-.2h-1.5c-14.5-1.3-18-10.9-18.1-11.3a2.5,2.5,0,0,1-.1-.9l-3-1c-5,.5-12.1,2.1-17.5,6.7a7.1,7.1,0,0,0,.1,6.7,2.5,2.5,0,0,1-1.1,3.3,2.6,2.6,0,0,1-3.3-1c-.1-.3-3.5-6.3-.6-12.7,1.8-4,5.5-7.2,11.1-9.4A28.3,28.3,0,0,1,94.7,98.4a2.5,2.5,0,0,1,.6-1.9c-2.2-1.5-3.4-2.4-3.4-2.4a2.5,2.5,0,0,1-.6-3.2C72.9,80.6,78.3,56,78.4,55.8a2.5,2.5,0,0,1,1.8-1.9h.6a26.5,26.5,0,0,1-1.9-3.2,2.5,2.5,0,0,1,.9-3.1,2.6,2.6,0,0,1,3.2.4,88.5,88.5,0,0,0,8.1,7.9c-15.7-19.6,1.7-42.3,1.9-42.5a2.5,2.5,0,0,1,4.3.7,57.1,57.1,0,0,0,5,9.9A58.5,58.5,0,0,1,97.7,8.2,2.5,2.5,0,0,1,102.5,7c.1.3,11.8,27.5,46.3,58.2a121.6,121.6,0,0,1,18.5,20.5c.5.5,4.9,5.3,10.4,12.2-1.1-3.6-4.6-12.8-13.6-17.8a2.5,2.5,0,0,1-1-3.3,2.5,2.5,0,0,1,3.3-1.2c1,.4,23.8,11.1,31.1,48.4a62.7,62.7,0,0,0,5.9,14.7l.8,1.6,40.2,56.5a2.5,2.5,0,0,1-.6,3.5A2.5,2.5,0,0,1,242.3,200.7Zm-49.2-39.2a28.9,28.9,0,0,1,17.4,5.6,42.2,42.2,0,0,1,4.6,4l6.2,8.1a33,33,0,0,1,2.5,5.4.5.5,0,0,1,0,.3l-.9,2.8a1.5,1.5,0,0,0,1.3,1.9,24.7,24.7,0,0,1,16.9,9.4,1.5,1.5,0,0,0,2.1.4,1.5,1.5,0,0,0,.4-2.1l-40.3-56.5h0l-.8-1.6a63.8,63.8,0,0,1-6-15c-7.2-36.9-29.5-47.3-30.5-47.7a1.5,1.5,0,0,0-2,.7,1.5,1.5,0,0,0,.6,2C176.3,85.6,179,98.9,179.1,99v.7a.5.5,0,0,1-.3.6.5.5,0,0,1-.6-.1c-6.2-7.8-11.3-13.4-11.8-14a121,121,0,0,0-18.4-20.3C113.4,35.1,101.7,7.6,101.6,7.3a1.5,1.5,0,0,0-2.9.7c0,.4,1.1,9.3,7.5,21.3a.5.5,0,0,1-.8.5,64.9,64.9,0,0,1-8.9-15.7,1.5,1.5,0,0,0-1.2-1,1.5,1.5,0,0,0-1.4.6c-.2.2-19.1,24.9,1,44.5l2.4,2.3a.5.5,0,0,1-.6.8A96.7,96.7,0,0,1,82.3,48.6a1.5,1.5,0,0,0-1.9-.3,1.5,1.5,0,0,0-.5,1.9,29.2,29.2,0,0,0,2.5,4.2.5.5,0,0,1-.7.7,1.5,1.5,0,0,0-1.3-.2A1.5,1.5,0,0,0,79.4,56c-.1.2-5.4,24.5,13,34.3a.5.5,0,0,1,.1.8l-.2.3a1.5,1.5,0,0,0,.3,2s1.3,1.1,3.9,2.7a.5.5,0,0,1,0,.8,1.5,1.5,0,0,0-.7,1.4A27.4,27.4,0,0,0,110,118.5a.5.5,0,0,1-.1.9c-5.9,2.2-9.8,5.3-11.5,9.3-2.6,6,.5,11.6.6,11.8a1.5,1.5,0,0,0,2,.6,1.5,1.5,0,0,0,.7-2c-1.9-4.1-.5-7,0-7.7h.1c5.6-4.8,13-6.4,18.2-7h.2l3.5,1.1a.5.5,0,0,1,.3.6,1.5,1.5,0,0,0,.1.8c.1.4,3.4,9.4,17.3,10.7l2.6.2a.5.5,0,0,1,.2.9,1.5,1.5,0,0,0-.4,2.4c.2.2,6.1,5.8,12.3,5.8a9.3,9.3,0,0,0,5.4-1.7l.4-.5c.1-.1,6.2-10.1,16.3-10.9h.4a.5.5,0,0,1,.2.4c.1,6.9-4.2,9.6-4.4,9.7a1.5,1.5,0,0,0-.6,1.9,24.7,24.7,0,0,0,11.5,12.2.5.5,0,0,1,0,.9l-1.4.8a1.5,1.5,0,0,0,1.2,2.7A31.4,31.4,0,0,1,193.1,161.6Zm-45.9-22.9h-.4a.5.5,0,0,1,0-1,31.2,31.2,0,0,0,4.3-.5.5.5,0,0,1,.2,1A14.7,14.7,0,0,1,147.2,138.7Zm14.1-44.5L172,103l69.2,93.8,1.2,1.4-40.4-56.7-.8-1.7a63.9,63.9,0,0,1-6.2-15.5c-7.1-36.5-29.6-46.6-29.6-46.6,12.5,7,15.2,20.9,15.2,20.9.8,3.7,1.7,7.1,2.6,10.3a248.2,248.2,0,0,0-17.8-21.9h0A118.4,118.4,0,0,0,147.1,67C111.7,35.6,100.2,7.9,100.2,7.9s2.6,23.9,28.2,46.7c0,0-24.9-17.7-33.3-39.9,0,0-18.5,23.6.8,42.5s39,25.9,39,25.9S101.8,72.5,81.2,49.6c0,0,8.4,18.4,41.4,33.3,0,0-24.4-7.9-41.8-26.5,0,0-5.5,23.9,12.9,33l4.6,1.8c.4,1.2.8,2.6,1.4,4.1l-6.3-3a64.3,64.3,0,0,0,6.9,4.5c.6,1.3,1.2,2.7,2,4-1.8-.8-3.5-1.7-5.1-2.6a25.6,25.6,0,0,0,18.6,21.1c-24,5.5-15.5,20.6-15.5,20.6-2.7-5.6.3-9.5.3-9.5,6-5.2,13.9-7,19.7-7.5,4.5,1.7,16.6,5.5,30.1,4.1,0,0-7.9,4.2-24.9-.5,0,0,2.9,8.5,16,9.7s18.9-4.8,18.9-4.8,10.8-4.4,16.1-.3c0,0-12.8.8-22.3,7.6a15.4,15.4,0,0,1-9.4,1.4s9,8.7,15.8,4c0,0,6.8-11.5,18.6-11.7a2,2,0,0,0,.9-.2c1.3,9.6-5,13.3-5,13.3a24,24,0,0,0,15.1,13.2,36.5,36.5,0,0,0-5.6,2.5s14.6-4.5,26.9,4.8a43.5,43.5,0,0,1,4.8,4.2l6.3,8.3a33.7,33.7,0,0,1,2.8,6.4l-1.1,3.5a25.9,25.9,0,0,1,16.3,8.1ZM104,97.1a48.8,48.8,0,0,1-4.1-5.4l43.6,16.5-1.2.7A214.4,214.4,0,0,1,104,97.1Zm8.7,7.6a43.1,43.1,0,0,1-5.3-4.2,133.5,133.5,0,0,0,22.8,8.6A151.5,151.5,0,0,1,112.7,104.7Zm8.6,18a42.7,42.7,0,0,1,6.9,0,63.9,63.9,0,0,0,19.4,0C143.8,123.9,134.9,125.5,121.3,122.7Zm24.2-13.1.5-.4,2.3.9Z" fill="#120e0f"></path></svg>