<svg version="1.1" id="brief" xmlns="http://www.w3.org/2000/svg" x="0px" y="0px" viewBox="0 0 334 302.7"><path fill="none" d="M97.3,258.7c-1,0-2-0.1-3-0.3c-0.3,0-0.5-0.1-0.8-0.2c-0.2,0-0.5-0.1-0.7-0.1c-0.9-0.2-1.8-0.5-2.8-0.9c-0.5-0.2-0.9-0.4-1.3-0.5c0,0-0.1,0-0.1-0.1c-0.7-0.3-1.5-0.7-2.4-1.1c-0.1,0-0.8-0.4-1.1-0.5c-1.1-0.5-2.2-1.1-3.2-1.7c-1.6-0.9-3.2-1.7-4.5-2.3c-0.1,0-0.2-0.1-0.3-0.1c-0.1,0-0.3-0.1-0.3-0.1c-0.2-0.1-0.4-0.2-0.6-0.2c-1.4-0.5-2.6-1.2-3.7-2.1c-0.1-0.1-0.3-0.2-0.4-0.3c-0.1-0.1-0.2-0.2-0.3-0.3c-0.7-0.7-1.4-1.4-2-2.3c0,0-0.1-0.1-0.1-0.1c-0.2-0.3-0.5-0.7-0.7-1.1c-0.5-0.9-0.9-1.8-1.2-2.7c0,0,0-0.1-0.1-0.2c-0.1-0.3-0.2-0.6-0.3-1c-0.2-0.8-0.4-1.7-0.5-2.5c-0.1-0.4-0.1-0.8-0.1-1.1c-0.1-0.8-0.1-1.6-0.1-2.4c0-0.5,0-0.9,0-1.2c0-0.7,0.1-1.2,0.1-1.5l0.1-1.1c0-0.6,0.1-1.2,0.1-1.9c0-0.1,0-0.2,0-0.3c0-0.1,0-0.2,0-0.3c0.1-2.1,0.3-4.4,0.4-6.9c0-0.2,0-0.5,0-0.7c0-0.6,0.1-2.2,0.1-2.2c0-0.1,0-0.2,0-0.2c0-0.1,0-0.2,0-0.2s0.1-1.3,0.1-1.8l0,0c0-0.1,0-0.2,0-0.4c0-0.1,0-0.3,0-0.4l0.1-1.7c0-0.1,0-0.2,0-0.3c0-0.1,0-0.2,0-0.3l0.1-2c0-0.1,0-0.2,0-0.2c0-0.1,0-0.2,0-0.3l0.1-2.2c0-0.1,0-0.1,0-0.2c0-0.1,0-0.2,0-0.3l0.1-2.2c0-0.1,0-0.2,0-0.2c0-0.1,0-0.2,0-0.3c0,0,0.1-2.2,0.1-2.3c0-0.1,0-0.2,0-0.2l0-2.2c0-0.1,0-0.1,0-0.2c0-0.2,0-0.7,0-1.7c-6.1-3-11.2-6.5-14.9-10.3c-6.9-7.2-8.9-18.8-5.7-34.4c2.2-11,6.1-20,6.2-20c2.7-6.7,5.9-11.9,9.3-15.4c-0.2-3.6,1.2-7.9,4.3-12.9c0-0.2,0-1,0-1c0-0.6,0-1.2,0-1.9l0-0.8c0-0.7,0-1.3,0-1.9c0,0,0-0.8,0-0.9c0-0.6,0.1-1.2,0.1-1.8l0-0.8c0-0.7,0.1-1.3,0.1-1.9l0.1-0.9c0.1-0.6,0.1-1.3,0.2-1.9l0.1-0.8c0.1-0.8,0.2-1.4,0.2-2l0.1-0.9c0.1-0.8,0.2-1.3,0.2-1.3c0.2-1.2,0.7-2.3,1.4-3.2c0.4-0.5,0.9-1.1,1.4-1.6c0.2-0.2,0.4-0.4,0.6-0.6c0.6-0.5,1.2-0.9,1.9-1.2c0.5-0.6,1.1-1.1,1.8-1.4c4.1-2.4,9.6-3.6,16.1-3.6c8.8,0,17.7,2.2,21,3l16.5-1.5c0.4-4.3,1.2-7.5,2.3-9.4c2.9-5.2,7.1-5.7,8.8-5.7c0.3,0,0.6,0,0.9,0.1c0.1,0,0.2,0,0.3,0c0.1,0,0.7,0.1,1.5,0.2c0.1,0,0.2,0,0.3,0c0.1,0,15-2,34.2-2c9.7,0,19,0.5,27.6,1.5c0.4,0,0.8,0.1,1.1,0.2l12.7,3.6c0.2,0,0.4,0,0.6,0c3.6,0,6.6,1.7,8,4.7c0.5,1,1.4,3,1.5,5.4c11.5-0.2,20.4-0.4,23-0.5c0,0,0.2,0,0.2,0c3.6,0,7.7,1.3,12.8,3.9c0.3,0.2,0.6,0.3,0.9,0.5c0,0,0.1,0.1,0.2,0.1c0.2,0.1,0.3,0.2,0.5,0.3c4.2,2.8,7.2,7,8.2,12c6.8,32,8.5,67.4,8.8,81.2c0,0.4,0,0.8-0.1,1.2c-0.4,3-0.7,5.5-0.8,7.2c-0.7,11.8-4.8,17.4-8.8,20.2c0.3,4.8,0.8,13.4,0.8,19c0,11-10.6,15.5-16.3,16.4l-21.8,4.5c-0.1,0-0.3,0.1-0.5,0.1l-123.1,17c-2.2,0.5-5.1,0.7-8.8,0.7c-1.7,0-3.1-0.1-4-0.1C98.9,258.7,98.1,258.7,97.3,258.7z" class="case-outline case-outline-move" stroke-width="3" stroke="#e9b370"></path> <path id="briefcase" d="M95.8,205.7C95.8,205.7,95.8,205.7,95.8,205.7L74.7,213c0,0.1,0,0.1,0,0.2c0-0.6,0-1.3,0.1-2l21.1-7.3C95.8,204.5,95.8,205.1,95.8,205.7z M96,198.7C96,198.7,96,198.7,96,198.7l-21.2,7.4c0-0.1,0,1.2,0,1.9c0-0.1,0-0.1,0-0.2l21.1-7.3c0,0.1,0,0.2,0,0.3C96,200,96,199.3,96,198.7z M74.3,223.3l21.3-7.4c0-0.6,0-1.2,0-1.7l-21.2,7.4C74.3,221.3,74.3,223.3,74.3,223.3z M95.7,209C95.7,209,95.7,209,95.7,209l-21.1,7.4c0,0.6,0,1.2-0.1,1.8l21.2-7.3c0,0,0,0,0,0C95.6,210.2,95.7,209.6,95.7,209z M243,217.3l7.2-2c2.5,0,4.4-2,4.4-4.4v-13.7l-0.5-3.2l0-0.1l0-0.1l0.3-5.8c-0.1-0.3-0.3-1.2-1.3-1.2c-0.1,0-0.2,0-0.3,0c-0.4,0.1-1.1,0.2-1.9,0.3l-1.6,6.5l-0.2,0.1c0,0-0.5,0.2-1.2,0.2c-0.6,0-1.2-0.1-1.9-0.6l-0.3-0.2l1.2-5.4c-0.4,0.1-0.9,0.1-1.3,0.2c-1.8,0.3-3.5,0.5-4.7,0.7c-0.4,0.1-0.8,0.4-0.8,0.9l-1.4,8v15.5C238.6,215.2,240.6,217.2,243,217.3z M259.1,178v-23.2c0-4.9-4-8.8-8.8-8.8L242,147c-4.9,0-8.9,4-8.9,8.8v22.8c0,2.7,1.3,5.2,3.2,6.8c0.3-0.5,0.7-0.9,1.2-1.2v-28.3c0-3,2.4-5.4,5.4-5.4l7-1h0c3.1,0,5.5,2.4,5.5,5.4v26.9c0.6,0.1,1.1,0.4,1.5,0.8c0.1,0.1,0.2,0.3,0.3,0.4C258.5,181.6,259.1,179.9,259.1,178z M82.5,113.9l12.9-4.5l0-1.7l-11.8,4.1L82.5,113.9z M85.7,107.8l9.7-3.3l0-1.7L85,106.2c0.3,0.3,0.5,0.8,0.6,1.4L85.7,107.8z M248.5,185.1l-1.6,7.6c0.7,0.4,1.3,0.3,1.6,0.2l1.9-7.6c0-0.2,0-0.3-0.1-0.5c-0.2-0.3-0.5-0.5-0.9-0.3l-0.5,0.2C248.7,184.6,248.5,184.8,248.5,185.1z M95.3,97.6L74.1,105c0,0.6,0,1.1,0.1,1.7l21.1-7.3L95.3,97.6z M77.7,113.9l-2.5,0.9c0,0.5,0,1.2,0,2C76.2,115.9,77.2,114.7,77.7,113.9z M81.3,107.5l-5.9,2l-0.7,1.8c0,0.1,0,0.1,0,0.2l5.3-1.8L81.3,107.5z M96.2,193.6L75,201c0-0.2,0,1,0,1.8l21.2-7.4L96.2,193.6z M75,197.6l21.1-7.3l0-1.7l-21,7.3C75.1,195.6,75,196.8,75,197.6z M74.1,105L74.1,105C74.1,104.8,74.1,104.8,74.1,105z M138.6,206.6l1.5-8.4c0.1-0.9,0.8-1.5,1.7-1.7c1.5-0.2,4.1-0.6,6.7-0.9l0.4-1.6c0.1-0.6,0.6-1.1,1.2-1.4l0.2-0.1l-9.8,1c-1.3,0.1-2.4,1.1-2.6,2.5l-2.3,12.6c0.1,0,0.2,0,0.3,0C138.4,208.6,138.6,206.6,138.6,206.6z M158.1,207.4c0.1,0.1,0.1,0.1,0.2,0.1c0.4-1.3,1.5-6,1.7-11c0.1-4.2-1.4-4.8-2.2-4.8c-0.3,0-0.6,0.1-0.6,0.1l-5.4,0.5c0.5,0.1,0.9,0.5,1.1,0.9c0.2,0.4,0.3,0.9,0.2,1.4l-0.1,0.4c1-0.1,1.8-0.2,2.2-0.3c0.2,0,0.3,0,0.4,0c2,0,2.3,2.1,2.3,2.1l-0.3,5.9L158.1,207.4z M122.4,202.4c-4.3,0-7-0.7-8.1-2c-1.8-2.2-2.6-18.4-2.7-20.3c0-0.4-3.1-39.3-3.9-58.2c-0.8-18-4.8-32.8-5.2-34.1c-2.5-0.3-4.2-0.3-5.4-0.2c2.4,4.8,4.4,24.9,6,59.8c2.4,50,5.4,56.7,6,57.5c0,0,1.2,1.8,3.1,2.5c2.3,1.2,6.8,2.3,15.8,1c1.6-0.2,3.9-0.5,6.6-0.8l1.2-6.5c-1,0.1-1.8,0.2-2.4,0.3C129,202.1,125.3,202.4,122.4,202.4z M255.7,197.4c0,0,1.6-4,1.7-9.8c0.1-4.2-1.4-4.8-2.2-4.8c-0.3,0-0.6,0.1-0.6,0.1l-4.6,0.5c0.5,0.1,0.9,0.4,1.1,0.8c0.2,0.4,0.3,0.8,0.2,1.2l-0.1,0.6c0.6-0.1,1.2-0.2,1.5-0.2c0.2,0,0.3,0,0.4,0c2,0,2.3,2.1,2.3,2.1l-0.3,5.9L255.7,197.4z M78.7,84.5c10.9-6.2,33,0.5,33,0.5l25-2.3l-1.1-1.5c0,0,0.3-8.3,1.6-10.7c1.4-2.4,2.8-2.2,2.8-2.2s1.2,0.2,2.7,0.5l1-0.3c0,0,29.5-4,60-0.5l14,4l0,0c0.5-0.1,2.6-0.4,2.9,0.6c0,0,0.8,1.4,0.8,2.9v6.5c17.2-0.3,30.3-0.6,30.3-0.6c2.5,0,5.8,1.3,8.5,2.6c0.3,0.2,0.2,0.2,0.2,0.2l-30.2,1.5l-79.1,3.5c-0.3,0-27,3-38.9-0.4c-8.7-2.5-13.6-2.4-15.8-2.1c-0.1-0.1-0.2-0.1-0.2-0.2c-0.3-0.1-0.5-0.1-0.8-0.1C89.6,87.1,83,85.7,78.7,84.5z M211.1,78.7c2.8,1.8,5.6,2,6.4,2v-5.3c0,0-0.1,0.1-0.4,0l0,0.1c0,0-2-0.7-6-1.5V78.7z M147.4,81.9l0.1,0.3c13.5,0.6,40.2,0.4,63.2,0.1c-0.2-0.1-0.4-0.2-0.6-0.3c-2.3-1.2-2-3.3-2-3.3v-5.3c-10.3-1.8-29.5-3.7-58.5-0.9c0,0,0,0,0,0c0,0.2,0,0.5-0.1,0.8C149.4,75.3,147.5,81.9,147.4,81.9L147.4,81.9z M139.2,78.3c1.3,0.1,3.2,0.4,5.2,0.6l1.6-6.3c-0.8-0.1-1.8-0.2-2.9-0.4l-2.3-0.1L139.2,78.3z M160.7,183.2v-24.3c0-4.9-4-8.8-8.8-8.8l-10.9,1.9c-4.9,0-8.9,4-8.9,8.8V187c0,3.4,1.9,6.3,4.7,7.7v-33.3c0-3.6,2.9-6.5,6.5-6.5l8.6-1.2h0c3.6,0,6.6,2.9,6.6,6.5V189C159.8,187.5,160.7,185.4,160.7,183.2z M258.2,190.1c0.1-0.8,0.1-1.6,0.2-2.5c0-1.5-0.1-2.7-0.4-3.6c1.3-1.7,2.1-3.8,2.1-6v-23.2c0-5.4-4.4-9.8-9.9-9.8h0L242,146c-5.4,0-9.8,4.4-9.8,9.8v22.8c0,3.1,1.5,5.9,3.8,7.7c-0.1,0.2-0.1,0.4-0.1,0.6l-1.1,5.8l-0.2,0c-0.4,0-43.9,3.1-73.7,5.4c0-0.5,0.1-1,0.1-1.5c0.1-2.4-0.3-4.1-1.3-5c-0.3-0.4-0.8-0.6-1.2-0.7v-0.4c2-1.8,3.3-4.4,3.3-7.3v-24.3c0-5.4-4.4-9.8-9.9-9.8h0l-10.9,1.9c-5.4,0-9.8,4.4-9.8,9.8V187c0,3.9,2.3,7.3,5.7,8.9c0,0,0,0,0,0l-0.8,4.3c-1.2,0.1-2.1,0.2-2.7,0.3c-10.1,1.4-16.8,1.1-18.2-0.7c-1.2-1.5-2.2-12.6-2.5-19.7c0-0.4-3-39.3-3.9-58.2c-0.8-17-4.3-31.1-5.1-33.9c2.3,0.3,5,0.9,8.4,1.8c4.5,1.3,10.9,1.7,17.3,1.7c10.7,0,21.3-1.2,21.9-1.2l79.1-3.5c0,0,26.1-1.4,26.3-1.3c0.2,0.1,0.3,0.3,0.3,0.3c2.5,2.5,3.8,5.8,3.8,5.8c0,0,0,0,0,0c0.1,0.3,5.7,27.1,7.4,42.5c1.7,15.4,1.7,41,1.3,47.3c-0.4,5.4-5.9,8-6.6,8.2L258.2,190.1z M263.3,123.7c0-7.4-4.8-26.9-5.6-30c-0.5-1.8-1.6-3.1-2.4-3.9c-0.6-0.6-1.4-0.9-2.2-0.8l-21.8,1.2l-29.5,2.2C247.2,92,263.3,123.7,263.3,123.7z M143.2,229.6l8.7-2.4c4,0,5.5-1,5.5-3.4v-12.9l-0.3-2.8l-0.5-5.2l0-0.1l0-0.1l0.3-5.7c-0.1-0.3-0.3-1.2-1.3-1.2c-0.1,0-0.2,0-0.3,0c-0.5,0.1-1.4,0.2-2.6,0.3l-2,8l-0.2,0.1c0,0-0.6,0.2-1.3,0.2c-0.6,0-1.4-0.2-2.2-0.7l-0.3-0.2l1.5-6.9c-2.5,0.3-4.9,0.6-6.3,0.8c-0.4,0.1-0.8,0.4-0.8,0.9l-1.5,8.4c-0.1,0.7-0.6,1.8-1.8,2.4v14.9C137.8,227.1,140.2,229.6,143.2,229.6z M254.4,181.9l-15.1,1.7c-0.2,0-0.5,0.1-0.7,0.1v-27.9c0-2.5,2-4.4,4.5-4.4l7-1c2.5,0,4.4,2,4.4,4.4v27C254.5,181.9,254.5,181.9,254.4,181.9z M251.8,168.7l-4.7-6.2l4.3-7.4c0.1-0.1,0-0.3-0.1-0.3c-0.1-0.1-0.3,0-0.3,0.1l-4.2,7.2l-4.5-5.9c-0.1-0.1-0.2-0.1-0.3,0c-0.1,0.1-0.1,0.2,0,0.4l4.6,6.1l-4,7c-0.1,0.1,0,0.3,0.1,0.3c0,0,0.1,0,0.1,0c0.1,0,0.2,0,0.2-0.1l3.9-6.8l4.5,6c0,0.1,0.1,0.1,0.2,0.1c0.1,0,0.1,0,0.2-0.1C251.9,169,251.9,168.8,251.8,168.7z M233.4,199.9l1.1-6.2c-2.5,0.2-44.7,3.2-73.8,5.4c-0.2,2.4-0.6,4.7-1,6.3c29.4-2.4,66.8-4.9,67.3-4.9L233.4,199.9z M237.3,198.9l1.7-9.7c0.1-0.9,0.8-1.5,1.7-1.7c1.6-0.2,4-0.6,6.4-0.9l0.4-1.8c0.1-0.6,0.5-1,1.1-1.2l0.2-0.1l-9.4,1.1c-1.3,0.1-2.4,1.1-2.6,2.5l-2.5,13.5c0.1,0.1,0.2,0.2,0.3,0.3C237.1,200.9,237.3,198.9,237.3,198.9z M156.9,190.9l-16.6,1.7c-1,0.1-1.9,0.6-2.5,1.3v-32.4c0-3,2.5-5.5,5.6-5.5l8.6-1.2c3,0,5.5,2.5,5.5,5.5v30.5C157.2,190.8,157,190.9,156.9,190.9z M153.8,175.9l-5.3-7l4.8-8.4c0.1-0.1,0-0.3-0.1-0.3c-0.1-0.1-0.3,0-0.3,0.1l-4.7,8.2l-5-6.7c-0.1-0.1-0.2-0.1-0.4,0c-0.1,0.1-0.1,0.2,0,0.4l5.2,6.9l-4.5,7.8c-0.1,0.1,0,0.3,0.1,0.3c0,0,0.1,0,0.1,0c0.1,0,0.2,0,0.2-0.1l4.4-7.7l5.1,6.8c0,0.1,0.1,0.1,0.2,0.1c0.1,0,0.1,0,0.2-0.1C153.8,176.1,153.9,176,153.8,175.9z M147.8,203.2c0.9,0.5,1.7,0.4,2.1,0.3l2.2-9c0.1-0.2,0-0.4-0.1-0.6c-0.2-0.4-0.7-0.6-1.1-0.4l-0.6,0.2c-0.3,0.1-0.5,0.4-0.6,0.7l-0.5,2.1c0,0.1,0,0.1,0,0.2c0,0-0.1,0-0.1,0L147.8,203.2z M90.6,252.1L90.6,252.1C90.6,252.1,90.6,252.1,90.6,252.1L90.6,252.1z M73.5,233.7C73.6,233.7,73.6,233.7,73.5,233.7L73.5,233.7C73.6,233.7,73.6,233.7,73.5,233.7z M95.6,224.3l-21.8,7.6c0,0.1,0,0.4-0.1,0.7c0,0-0.1,0.4-0.1,1.1l22-7.6C95.6,226.1,95.6,225,95.6,224.3z M73.7,231.8L73.7,231.8C73.7,231.8,73.7,231.8,73.7,231.8z M74,228.4l21.6-7.5c0,0.1,0-1,0-1.7l-21.5,7.4c0-0.1-0.1,1.1-0.1,1.9c0,0,0,0,0,0C74,228.5,74,228.5,74,228.4z M95.7,229.3l-22,7.6c0.1,0.5,0.2,1.1,0.3,1.6l21.7-7.5C95.7,230.5,95.7,229.9,95.7,229.3z M74.8,177.1c-1.3-0.7-2.5-1.4-3.7-2.1c-0.4-0.1-1.3-0.4-2.2-1.7c-2.2-3.2-3.7-11.4,1.9-32.3c0.1-0.2,4.9-14.3,3.1-19.2c-0.2,0-0.4,0-0.6,0c-0.7,0-1.4-0.1-2.1-0.4c-0.2-0.1-0.5-0.2-0.7-0.3c-2.3,1.4-6.3,5.1-10.5,15.4c-0.2,0.3-14.5,33.7-1.8,46.8c3.8,3.9,9.4,7.5,16.4,10.5C74.7,188.6,74.7,183,74.8,177.1z M95.2,92.6l-21.1,7.3c0,0.6,0,1.2,0,1.8l21.2-7.3L95.2,92.6z M77.3,243.3L77.3,243.3c-0.1,0-0.1-0.1-0.2-0.1C77.2,243.2,77.2,243.2,77.3,243.3z M71.5,120.4c5.1,1.9,9.3-5.4,9.3-5.5l3.8-7.3c-0.2-1-1-1.3-1.5-1.4l-4.4,7.7c-0.1,0.2-2.3,3.9-4.7,4.5c-0.9,0.2-1.6,0.1-2-0.4c-0.6-0.6-0.4-1.6-0.4-1.7l2.7-6.8l-0.8-1.4c-1.2,2-4.5,7.7-3.6,10.7C70.2,119.6,70.7,120.1,71.5,120.4z M95.8,234.3l-20.4,7.1c0.3,0.5,0.7,0.9,1.2,1.3l19.2-6.7C95.8,235.5,95.8,234.9,95.8,234.3z M86.4,247.8c0.6,0.3,1.3,0.7,1.9,1l6.9-2.4c0.1-0.5,0.1-1.2,0.2-1.8l-8.6,3C86.6,247.7,86.5,247.8,86.4,247.8z M262.2,85.2l-4.3,0.2c2.5,2.6,3.7,5.8,3.7,6c0.1,0.3,5.7,27.2,7.4,42.7c1.7,15.5,1.8,41.2,1.3,47.4c-0.5,6.3-7,9-7.3,9.1l-0.1,0l-4.8,0.5c-0.4,3.2-1.1,5.5-1.4,6.3l9.4-1c0,0,0.1,0,0.1,0c0.3,0,8.1-0.3,9-16.1c0.1-2,0.4-4.7,0.9-7.8c-0.4-15-2.1-48.9-8.7-79.9C266.7,89.6,264.8,86.9,262.2,85.2z M266.2,198.5c0.2,3.4,0.9,14.8,0.9,21.5c0,8-10.5,9.5-10.5,9.5l-22,4.5l-123.5,17c-4,1-12,0.5-12,0.5c-1.2,0.3-2.4,0.3-3.7,0.1l0.2-0.5c0-0.1,1.5-9.2,1-22.6c-0.5-13.3,0.5-32.8,0.5-33l-1-104.7c1.1,4.6,3.1,18.1,5,56.8c1.8,38.4,3.9,57.4,7.3,59.7c1.4,1.4,3.7,3.9,12.1,3.9c2.2,0,4.7-0.2,7.7-0.6c1.8-0.3,4.3-0.6,7.4-0.9c0,0,0,0,0.1,0c0.4,0,0.7,0,1-0.1l0,14.6c0,3.6,2.9,6.5,6.5,6.5h0.1l8.6-2.4c3,0,6.4-0.5,6.4-4.4v-13.3l0.7-2.3c0,0,0.1-0.3,0.2-0.7c29.4-2.4,67.4-5,68-5l6.3-0.6l0.6,0c0.1,0,0.3,0,0.4,0c0.7,0,1.3-0.1,1.8-0.3l1.3-0.1v11.4c0,3,2.4,5.4,5.4,5.4h0.1l7.1-2c3,0,5.4-2.5,5.4-5.4v-10.6l0.3-0.7L266.2,198.5C266.2,198.5,266.2,198.5,266.2,198.5z M178.7,240c0,0-62,7.1-72.6,4.7c0,0-0.7-3.3-2.3-25.1l-5.2-83.1c0,0,1.4,96.3,1,101.5c-0.3,3.8-0.9,8.4-1.1,10.7c-0.1,0.6,0.5,1.2,1.1,1.1c1.3-0.2,3.4-0.3,5.5,0C108.3,250.1,142.4,245.8,178.7,240z M278,172.6c0,0.1,0,0.2,0,0.3c-0.5,3.2-0.7,5.7-0.8,7.6c-0.8,12.9-6,16.5-9,17.6c0,0.1,0,0.2,0,0.3c0.2,3.4,0.9,14.8,0.9,21.6c0,7.7-7.9,10.8-12.2,11.5l-21.9,4.5c0,0-0.1,0-0.1,0l-123.4,17c-1.8,0.4-4.5,0.7-7.9,0.7c-2,0-3.7-0.1-4.3-0.1c-0.6,0.1-1.3,0.2-2,0.2c-0.7,0-1.4-0.1-2.1-0.2c-0.2,0-1-0.2-1.1-0.2c-0.7-0.2-1.5-0.4-2.3-0.7c0,0,0,0,0,0c0,0,0,0,0,0c-0.3-0.1-0.9-0.3-1.1-0.4l0,0c0,0-0.1,0-0.1,0c-0.7-0.3-3-1.4-3.2-1.5c0,0,0,0,0,0c-1.1-0.5-2.1-1.1-3.2-1.7c-1.7-0.9-3.3-1.8-4.8-2.5c-0.1,0-0.5-0.2-0.6-0.3c0,0,0,0,0,0c0,0,0,0,0,0c0,0,0,0,0,0c-0.3-0.1-0.6-0.2-0.8-0.3c-0.9-0.3-1.7-0.8-2.4-1.4c-0.1-0.1-0.4-0.3-0.4-0.4c-0.5-0.5-1-1-1.4-1.6c0,0,0,0,0,0c-0.2-0.3-0.4-0.5-0.5-0.8c0,0,0,0,0,0c-0.4-0.6-0.6-1.2-0.9-1.8c0,0,0,0,0,0c-0.1-0.3-0.2-0.5-0.3-0.8l0,0c0,0,0,0,0,0c-0.2-0.6-0.3-1.2-0.4-1.9c0,0,0,0,0,0c0-0.3-0.1-0.6-0.1-0.9c0,0,0,0,0,0c-0.1-0.6-0.1-1.2-0.1-1.9c0,0,0,0,0-0.1c0-0.3,0-0.6,0-0.9c0-0.6,0.1-1.1,0.1-1.3l1.4-37c-6.9-3-12.5-6.6-16.4-10.6c-5.7-5.9-7.2-16-4.4-30c2.1-10.3,5.8-19,5.8-19c3.7-9.2,7.4-13.6,10.2-15.6c-0.1-0.2-0.2-0.4-0.2-0.6c-1.1-3.4,1.5-8.6,3.8-12.4c0.1-0.1,0.2-0.3,0.3-0.4c0-0.6-0.1-1.1-0.1-1.7c0,0,0,0,0,0l0-0.3c0,0,0,0,0,0l0-0.2c0-0.1,0-0.1,0-0.2c0-0.1,0-0.1,0-0.2c0-0.6,0-1.2,0-1.8c0,0,0,0,0,0c0,0,0,0,0-0.1l0-0.6l0,0c0,0,0-0.1,0-0.1c0-0.6,0-1.2,0-1.8c0,0,0-0.1,0-0.1c0,0,0-0.1,0-0.1l0-0.3c0,0,0-0.1,0-0.1c0,0,0-0.1,0-0.1c0-0.6,0.1-1.2,0.1-1.8c0,0,0,0,0-0.1c0,0,0,0,0-0.1l0-0.6c0,0,0,0,0,0c0,0,0,0,0,0c0-0.6,0.1-1.2,0.1-1.8c0,0,0,0,0,0c0,0,0,0,0,0l0-0.2c0,0,0,0,0,0l0-0.4c0,0,0-0.1,0-0.1c0,0,0-0.1,0-0.1c0.1-0.6,0.1-1.3,0.2-1.8c0,0,0,0,0,0c0,0,0,0,0,0l0-0.4c0,0,0,0,0,0l0-0.3c0,0,0,0,0,0c0,0,0,0,0,0c0.1-0.7,0.1-1.3,0.2-1.8c0,0,0,0,0,0l0.1-0.5v0l0,0c0,0,0,0,0,0l0-0.2c0,0,0,0,0,0c0,0,0,0,0,0c0,0,0,0,0-0.1c0,0,0,0,0-0.1c0.1-0.8,0.2-1.2,0.2-1.2c0.1-0.3,0.2-0.7,0.4-0.9c0.3-0.4,0.6-0.8,1-1.1c0,0,0,0,0,0c0.1-0.1,0.2-0.2,0.3-0.3l0.1-0.1c0.4-0.3,0.9-0.5,1.3-0.5c0.1,0,0.1,0,0.2,0c0.1,0,0.1,0,0.2-0.1c0.1-0.6,0.4-1.1,1-1.4c3.4-1.9,8-2.9,13.7-2.9c9.2,0,18.5,2.5,20.5,3.1l21.6-2c0.1-1.7,0.4-8.9,1.9-11.5c1.6-2.9,3.7-3.2,4.5-3.2c0.3,0,0.4,0,0.4,0c0,0,0,0,0,0c0,0,1,0.2,2.4,0.4l0.5-0.1c0.1,0,0.2-0.1,0.3-0.1c0.1,0,14.6-2,33.5-2c9.5,0,18.6,0.5,27,1.4c0.1,0,0.2,0,0.3,0.1l13.6,3.9c0.3,0,0.7-0.1,1.1-0.1c2.3,0,3.2,1.2,3.5,1.9c0.3,0.5,1,2,1,3.8v4.5c16-0.3,28.1-0.6,28.3-0.6c2.6,0,6.1,1.1,10.4,3.3c0.2,0.1,0.4,0.2,0.6,0.3l0.2,0.1c0.1,0,0.1,0.1,0.2,0.1c0.1,0,0.2,0.1,0.3,0.1c3.1,2,5.3,5.2,6.1,8.8C276.1,124,277.7,159,278,172.6z M277,172.6c-0.4-13.6-2-48.5-8.7-80.1c-0.7-3.4-2.7-6.3-5.6-8.2c0,0-0.1-0.1-0.1-0.1c0,0-0.8-0.5-1-0.6c-4.1-2.1-7.5-3.2-9.9-3.2l-0.1,0c-3.1,0.1-14.2,0.3-28.1,0.6l-1,0v-1v-4.5c0-1.6-0.7-2.9-0.9-3.3l0,0l0,0c-0.3-0.6-0.9-1.3-2.6-1.3c-0.3,0-0.6,0-1,0.1l-0.2,0L203.9,67c-0.1,0-0.1,0-0.2,0c-8.3-1-17.4-1.4-26.9-1.4c-18.8,0-33.5,2-33.5,2l-0.5,0.1l-0.2,0.1l-0.3-0.1c-1.3-0.3-2.3-0.4-2.3-0.4c0,0-0.2,0-0.2,0c-0.6,0-2.2,0.3-3.6,2.7c-1.1,1.9-1.6,7.1-1.8,11l0,0.9l-0.9,0.1L112,84l-0.2,0l-0.2-0.1c-1.8-0.5-11.1-3.1-20.2-3.1c-5.5,0-9.9,0.9-13.2,2.8c-0.3,0.2-0.4,0.4-0.5,0.7L77.6,85l-1.2,0.2c0,0-0.1,0-0.1,0c-0.2,0-0.7,0.3-0.7,0.3c-0.1,0.1-0.2,0.2-0.3,0.3c-0.3,0.3-0.6,0.7-0.9,1c-0.1,0.1-0.2,0.3-0.2,0.5c0,0-0.2,1.2-0.2,1.2h0l0,0.2l-0.1,0.5c-0.1,0.5-0.2,2.2-0.2,2.2l-0.3,2.9l0,0.2c0,0-0.1,1.2-0.1,1.9l0,0.8c0,0.6-0.1,4.5-0.1,4.5l0,3.3c0,0.6,0,1.2,0.1,1.7l0,0.5c0,0-0.4,0.4-0.5,0.5c-3.1,5-4.4,9.1-3.7,11.5c0.1,0.2,0.1,0.3,0.2,0.5l0.4,0.7l-0.7,0.5c-2.4,1.8-6.1,5.9-9.9,15.2c0,0.1-3.7,8.6-5.8,18.8c-2.7,13.6-1.4,23.4,4.1,29.1c3.7,3.8,9.3,7.4,16,10.4l0.6,0.3l0,0.7l-0.4,16.9c0,0-0.9,18.4-0.9,19l0,0.4l-0.1,0.8l0,0c0,0.2-0.1,0.6-0.1,1.2c0,0.3,0,0.5,0,0.9l0,0c0,0,0,1.2,0.1,1.8c0,0.3,0.1,0.5,0.1,0.8c0.1,0.6,0.2,1.2,0.4,1.8c0.1,0.3,0.1,0.5,0.2,0.8c0.2,0.5,0.5,1.1,0.8,1.7c0.1,0.3,0.3,0.5,0.5,0.7c0.4,0.5,0.8,1,1.3,1.4l0,0l0,0c0,0,0,0,0.1,0.1c0.1,0.1,0.2,0.1,0.2,0.2c0.7,0.5,1.4,0.9,2.2,1.2c0.3,0.1,0.9,0.4,0.9,0.4l0,0l0,0c0,0,0.6,0.2,0.6,0.3c1.6,0.7,3.2,1.6,4.9,2.5c1,0.6,2.1,1.1,3.1,1.7c0.2,0.1,0.4,0.2,0.7,0.3c0,0,0.3,0.1,0.3,0.1c0,0,1.5,0.7,2.2,1l0.1,0c0.3,0.1,0.7,0.3,1,0.4l0,0l0,0c0.8,0.3,1.5,0.5,2.2,0.7c0.1,0,1,0.2,1,0.2c0.7,0.1,1.4,0.2,2,0.2c0.6,0,1.3-0.1,1.8-0.2l0.1,0c0,0,2.4,0.1,4.4,0.1c3.3,0,7.7-0.6,7.7-0.6l123.4-17l0.1,0l21.9-4.5l0,0l0,0c3.9-0.6,11.3-3.5,11.3-10.5c0-6.8-1.1-22.6-1.1-22.6l0.8-0.3c2.8-0.9,7.6-4.3,8.3-16.7c0.1-1.9,0.4-4.5,0.9-7.7C277,172.7,277,172.7,277,172.6z M94.5,251.3l0.2-0.5c0,0,0.1-0.3,0.1-1l-2.4,0.8C93.1,251,93.8,251.2,94.5,251.3z M76.7,242.8C76.6,242.8,76.6,242.8,76.7,242.8l-0.1-0.1C76.6,242.8,76.6,242.8,76.7,242.8z M95.2,88.5c-1.1,0.1-2.2,0.1-3.3,0.1l-17.5,6.1c0,0.6-0.1,1.2-0.1,1.8l20.9-7.3L95.2,88.5z M95.7,239.4l-15.3,5.3c-0.1,0-0.1-0.1-0.2-0.1l2.3,1.1l13.1-4.5C95.6,240.6,95.6,240.1,95.7,239.4z M75.8,180.4c0,0.6,0,1.2,0,1.7l20.2-7l0-1.7L75.8,180.4z M75.3,175.5c0,0.2,0,0.4,0,0.7c0.1,0,0.1,0.1,0.2,0.1l0.3,0.1l0,0.3c0,0.1,0,0.2,0,0.3l20.2-7l0-1.7L75.3,175.5z M84.5,87.9c-1.1-0.2-2.2-0.4-3.2-0.6l-6.4,2.2c-0.1,0.5-0.1,1.1-0.2,1.8L84.5,87.9z M75.3,165.4c0,0.8,0,2,0,1.7l20.5-7.1l0-1.7L75.3,165.4z M95.8,153.2l-20.4,7.1c0,0.6,0,1.6,0,1.7l20.4-7.1L95.8,153.2z M75.4,162L75.4,162C75.4,162.1,75.4,162.1,75.4,162z M75.2,121.4L75.2,121.4l20.2-6.9l0-1.7l-15.8,5.5C78.5,119.5,77,120.8,75.2,121.4z M75.7,185.5c0,0.6,0,1.2,0,1.7l20.3-7.1l0-1.7L75.7,185.5z M75.6,192.4l20.5-7.1l0-1.7l-20.4,7.1C75.6,191.2,75.6,191.8,75.6,192.4z M75.3,170.4c0,0.6,0,1.2,0,1.9c0,0,0-0.1,0-0.1l20.6-7.1l0-1.7L75.3,170.4z M75.3,129.9c0,0,0,1.9,0,1.7l20.2-7l0-1.7L75.3,129.9z M75.3,124.8c0,0.1,0,0.2,0,0.3c0,0.5,0,1,0,1.5c0,0,0-0.1,0-0.1l20.2-7l0-1.7L75.3,124.8z M74.9,89.5L74.9,89.5C74.9,89.4,74.9,89.4,74.9,89.5C74.9,89.4,74.9,89.4,74.9,89.5z M75.3,135c0-0.1,0,1.8,0,1.7l20.2-7l0-1.7L75.3,135z M75.3,140c0-0.1,0,1.9,0,1.7l20.3-7l0-1.7L75.3,140z M75.4,155.2c0-0.1,0,1.9,0,1.7l20.4-7.1l0-1.7L75.4,155.2z M75.4,150.2c0-0.1,0,1,0,1.7l20.3-7.1l0-1.7L75.4,150.2z M75.4,145.1c0,0.6,0,1.2,0,1.7l20.3-7l0-1.7L75.4,145.1z"></path></svg>