<svg xmlns="http://www.w3.org/2000/svg" xmlns:xlink="http://www.w3.org/1999/xlink" version="1.1" id="Layer_3" x="0px" y="0px" viewBox="0 0 142.2 19.2" style="enable-background:new 0 0 142.2 19.2;" xml:space="preserve">
<style type="text/css">
	.st0{fill:#DBD9D7;}
</style>
<path id="a1" class="st0" d="M10.4,13.7H5.1l-1.3,3.9H1L6.3,2.4h2.9l5.4,15.2h-2.9L10.4,13.7z M7.8,5c0,0-0.3,1.5-0.6,2.4l-1.4,4.1  h4L8.4,7.4C8.1,6.5,7.8,5,7.8,5L7.8,5z"/>
<g>
	<path id="w1" class="st0" d="M29.7,12.9c0.2,0.9,0.3,1.6,0.3,1.6h0c0,0,0.1-0.8,0.3-1.6l2.5-10.5h2.9l-3.9,15.2h-3.2l-2.3-9   c-0.3-1-0.4-2-0.4-2h0c0,0-0.1,1-0.4,2l-2.3,9h-3.2L16,2.4h2.9l2.4,10.5c0.2,0.9,0.3,1.6,0.3,1.6h0c0,0,0-0.7,0.3-1.6l2.7-10.5H27   L29.7,12.9z"/>
</g>
<g>
	<path id="w2" class="st0" d="M49.9,2.4l-2.5,10.5c-0.2,0.9-0.3,1.6-0.3,1.6h0c0,0,0-0.7-0.3-1.6L44.2,2.4h-2.4L39,12.9   c-0.2,0.9-0.3,1.6-0.3,1.6h0c0,0-0.1-0.8-0.3-1.6L36.6,5l-1.4,5.8l1.7,6.8h3.2l2.3-9c0.3-1,0.4-2,0.4-2h0c0,0,0.1,1,0.4,2l2.3,9   h3.2l3.9-15.2L49.9,2.4L49.9,2.4z"/>
</g>
<g>
	<path id="w3" class="st0" d="M67.1,2.4l-2.5,10.5c-0.2,0.9-0.3,1.6-0.3,1.6h0c0,0,0-0.7-0.3-1.6L61.3,2.4h-2.4l-2.7,10.5   c-0.2,0.9-0.3,1.6-0.3,1.6h0c0,0-0.1-0.8-0.3-1.6L53.8,5l-1.4,5.8l1.7,6.9h3.2l2.3-9c0.3-1,0.4-2,0.4-2h0c0,0,0.1,1,0.4,2l2.3,9   h3.2L70,2.4L67.1,2.4L67.1,2.4z"/>
</g>
<path id="a2" class="st0" d="M81.2,13.7h-5.3l-1.3,3.9h-2.9l5.4-15.2h2.9l5.4,15.2h-2.9L81.2,13.7z M78.5,5c0,0-0.3,1.5-0.6,2.4  l-1.4,4.1h4l-1.4-4.1C78.8,6.5,78.5,5,78.5,5L78.5,5z"/>
<path id="r" class="st0" d="M89.4,2.4h4.9c1.7,0,2.4,0.1,3.1,0.4C98.9,3.5,99.9,5,99.9,7c0,1.8-1,3.5-2.6,4.2v0c0,0,0.2,0.2,0.5,0.8  l3.1,5.7h-3.1l-3-5.7h-2.7v5.7h-2.8L89.4,2.4L89.4,2.4z M94.7,9.5c1.5,0,2.4-0.9,2.4-2.4c0-1.5-0.6-2.4-2.8-2.4h-2.1v4.8L94.7,9.5  L94.7,9.5z"/>
<path id="d" class="st0" d="M105.7,2.4h5.2c4.7,0,7.8,2.8,7.8,7.6c0,4.8-3.1,7.6-7.8,7.6h-5.2V2.4z M110.7,15.2  c3.1,0,5.1-1.8,5.1-5.3c0-3.4-2-5.2-5.1-5.2h-2.3v10.5H110.7z"/>
<path id="s" class="st0" d="M123.6,13.7c0,0,1.7,1.6,3.8,1.6c1.2,0,2.2-0.6,2.2-1.8c0-2.7-7.2-2.3-7.2-6.9c0-2.5,2.2-4.4,5.1-4.4  c3,0,4.5,1.6,4.5,1.6L130.9,6c0,0-1.5-1.3-3.4-1.3c-1.3,0-2.3,0.8-2.3,1.8c0,2.7,7.2,2,7.2,6.9c0,2.4-1.8,4.5-5,4.5  c-3.4,0-5.3-2.1-5.3-2.1L123.6,13.7z"/>
<path id="register" class="st0" d="M138.3,2.3c1.5,0,2.6,1.2,2.6,2.7c0,1.5-1.2,2.7-2.6,2.7c-1.4,0-2.6-1.2-2.6-2.7  C135.7,3.5,136.9,2.3,138.3,2.3z M138.3,7.4c1.3,0,2.3-1,2.3-2.4c0-1.3-1-2.4-2.3-2.4c-1.3,0-2.3,1-2.3,2.4  C136.1,6.3,137.1,7.4,138.3,7.4z M137.5,3.5h1c0.5,0,0.9,0.3,0.9,0.9c0,0.4-0.3,0.7-0.6,0.8v0c0,0,0,0,0.1,0.2l0.6,1.1h-0.4  l-0.6-1.2h-0.6v1.2h-0.3L137.5,3.5L137.5,3.5z M138.4,5c0.3,0,0.6-0.2,0.6-0.6c0-0.4-0.2-0.6-0.6-0.6h-0.6V5H138.4z"/>
</svg>