<svg xmlns="http://www.w3.org/2000/svg" xmlns:xlink="http://www.w3.org/1999/xlink" version="1.1" id="Layer_1" x="0px" y="0px" viewBox="0 0 124.5 19.2" style="enable-background:new 0 0 124.5 19.2;" xml:space="preserve">
<style type="text/css">
	.st0{fill:#DBD9D7;}
</style>
<path class="st0" d="M10.2,1.8C9.1,1.8,8,2,7.2,2.4C6.3,2.8,5.5,3.4,4.9,4.1C4.3,4.7,3.8,5.6,3.4,6.5c-0.3,0.9-0.5,1.9-0.5,3  c0,1,0.2,2,0.5,2.9c0.3,0.9,0.8,1.6,1.4,2.3c0.6,0.6,1.3,1.1,2.1,1.5c0.8,0.4,1.8,0.5,2.8,0.5c1.4,0,2.7-0.3,3.8-0.8l0.1,0v-1.6  l-0.2,0.1c-1,0.6-2.2,0.8-3.5,0.8c-0.9,0-1.6-0.2-2.3-0.5c-0.6-0.3-1.2-0.7-1.6-1.2c-0.4-0.5-0.8-1.1-1-1.8C4.7,11,4.5,10.2,4.5,9.4  c0-0.9,0.1-1.7,0.4-2.5C5.2,6.2,5.5,5.6,6,5c0.5-0.5,1.1-1,1.7-1.3c0.7-0.3,1.5-0.5,2.4-0.5c1.1,0,2.2,0.3,3.2,0.7l0.2,0.1V2.4  l-0.1,0C12.5,2,11.4,1.8,10.2,1.8"/>
<path class="st0" d="M23.4,10.5c-0.3-0.3-0.7-0.7-1.1-1c-0.4-0.3-1-0.6-1.6-0.9c-0.6-0.3-1-0.6-1.4-0.8c-0.4-0.2-0.7-0.5-0.9-0.7  c-0.2-0.2-0.4-0.5-0.5-0.7c-0.1-0.2-0.2-0.6-0.2-0.9c0-0.4,0.1-0.7,0.2-1c0.2-0.3,0.4-0.5,0.6-0.7c0.3-0.2,0.6-0.3,0.9-0.4  c0.4-0.1,0.7-0.1,1.2-0.1c1.1,0,2.1,0.2,2.9,0.7l0.2,0.1V2.3l-0.1,0C22.9,2,22,1.8,20.8,1.8c-0.6,0-1.2,0.1-1.8,0.3  c-0.6,0.2-1.1,0.4-1.5,0.8c-0.4,0.3-0.8,0.7-1,1.2c-0.3,0.5-0.4,1-0.4,1.6c0,0.5,0.1,0.9,0.2,1.3c0.1,0.4,0.3,0.7,0.6,1  c0.3,0.3,0.6,0.6,1.1,0.9c0.4,0.3,1,0.6,1.6,0.9c0.5,0.3,1,0.6,1.4,0.8c0.4,0.2,0.7,0.5,1,0.7c0.2,0.2,0.4,0.5,0.6,0.7  c0.1,0.3,0.2,0.6,0.2,0.9c0,0.7-0.2,1.3-0.7,1.7c-0.5,0.4-1.3,0.6-2.3,0.6c-0.3,0-0.6,0-0.8-0.1c-0.3,0-0.6-0.1-0.9-0.2  c-0.3-0.1-0.6-0.2-0.9-0.3c-0.3-0.1-0.5-0.3-0.8-0.5L16.1,14v1.9l0.1,0c0.2,0.1,0.4,0.2,0.7,0.3c0.3,0.1,0.6,0.2,0.9,0.2  c0.3,0.1,0.6,0.1,0.9,0.2c0.3,0,0.6,0.1,0.8,0.1c0.7,0,1.3-0.1,1.9-0.2c0.6-0.2,1.1-0.4,1.5-0.7c0.4-0.3,0.8-0.7,1-1.2  c0.2-0.5,0.4-1.1,0.4-1.7c0-0.5-0.1-0.9-0.2-1.3C24,11.2,23.7,10.8,23.4,10.5"/>
<path class="st0" d="M34.8,11.6c-0.1-0.4-0.4-0.7-0.7-1.1c-0.3-0.3-0.7-0.7-1.1-1c-0.4-0.3-1-0.6-1.6-0.9c-0.6-0.3-1-0.6-1.4-0.8  c-0.4-0.2-0.7-0.5-0.9-0.7c-0.2-0.2-0.4-0.5-0.5-0.7c-0.1-0.2-0.2-0.6-0.2-0.9c0-0.4,0.1-0.7,0.2-1c0.2-0.3,0.4-0.5,0.6-0.7  c0.3-0.2,0.6-0.3,0.9-0.4c0.4-0.1,0.7-0.1,1.2-0.1c1.1,0,2.1,0.2,2.9,0.7l0.2,0.1V2.3l-0.1,0c-0.8-0.3-1.7-0.5-2.8-0.5  c-0.6,0-1.2,0.1-1.8,0.3c-0.6,0.2-1.1,0.4-1.5,0.8c-0.4,0.3-0.8,0.7-1,1.2c-0.3,0.5-0.4,1-0.4,1.6c0,0.5,0.1,0.9,0.2,1.3  c0.1,0.4,0.3,0.7,0.6,1c0.3,0.3,0.6,0.6,1.1,0.9c0.4,0.3,1,0.6,1.6,0.9c0.5,0.3,1,0.6,1.4,0.8c0.4,0.2,0.7,0.5,1,0.7  c0.2,0.2,0.4,0.5,0.6,0.7c0.1,0.3,0.2,0.6,0.2,0.9c0,0.7-0.2,1.3-0.7,1.7c-0.5,0.4-1.3,0.6-2.3,0.6c-0.3,0-0.6,0-0.8-0.1  c-0.3,0-0.6-0.1-0.9-0.2c-0.3-0.1-0.6-0.2-0.9-0.3c-0.3-0.1-0.5-0.3-0.8-0.5L26.8,14v1.9l0.1,0c0.2,0.1,0.4,0.2,0.7,0.3  c0.3,0.1,0.6,0.2,0.9,0.2c0.3,0.1,0.6,0.1,0.9,0.2c0.3,0,0.6,0.1,0.8,0.1c0.7,0,1.3-0.1,1.9-0.2c0.6-0.2,1.1-0.4,1.5-0.7  c0.4-0.3,0.8-0.7,1-1.2c0.2-0.5,0.4-1,0.4-1.7C35.1,12.4,35,11.9,34.8,11.6"/>
<rect x="62.9" y="2.1" class="st0" width="1.6" height="14.3"/>
<path class="st0" d="M95,13.8c0,0-9.1-11.7-9.1-11.7h-1.6v14.3h1.6c0,0,0-11.6,0-11.8c0,0,9.2,11.8,9.2,11.8h1.5V2.1H95  C95,2.1,95,13.7,95,13.8"/>
<path class="st0" d="M78.9,13.8c0,0-9.1-11.7-9.1-11.7h-1.6v14.3h1.6c0,0,0-11.6,0-11.8c0,0,9.2,11.8,9.2,11.8h1.5V2.1h-1.6  C78.9,2.1,78.9,13.7,78.9,13.8"/>
<polygon class="st0" points="102,9.9 108,9.9 108,8.5 102,8.5 102,3.5 109.2,3.5 109.2,2.1 100.4,2.1 100.4,16.4 109.5,16.4   109.5,15 102,15 "/>
<path class="st0" d="M120.5,11.9c-0.2-0.3-0.3-0.6-0.5-0.8c-0.1-0.2-0.3-0.4-0.4-0.6c-0.2-0.2-0.3-0.3-0.5-0.5  c-0.1-0.1-0.2-0.1-0.3-0.2c0.4-0.1,0.8-0.3,1.1-0.4c0.4-0.2,0.8-0.5,1-0.9c0.3-0.3,0.5-0.7,0.7-1.2c0.2-0.4,0.2-0.9,0.2-1.4  c0-0.6-0.1-1.2-0.4-1.7c-0.2-0.5-0.6-0.9-1-1.2c-0.4-0.3-0.9-0.6-1.4-0.7c-0.5-0.2-1-0.2-1.6-0.2h-5v14.3h1.6v-6.1h2.2  c0.3,0,0.5,0,0.8,0.1c0.2,0.1,0.4,0.2,0.6,0.3c0.2,0.2,0.4,0.4,0.6,0.6c0.2,0.3,0.4,0.6,0.6,1l2.1,4l0,0.1h1.8L120.5,11.9z   M114.1,3.5h3.1c1,0,1.7,0.2,2.2,0.7c0.5,0.4,0.7,1.1,0.7,1.8c0,0.4-0.1,0.8-0.2,1.2c-0.1,0.3-0.4,0.6-0.6,0.9  c-0.3,0.2-0.6,0.4-1,0.6c-0.4,0.1-0.8,0.2-1.3,0.2h-3L114.1,3.5L114.1,3.5z"/>
<polygon class="st0" points="37.3,2.1 47,16.4 47.8,15.2 39,2.1 "/>
<polygon class="st0" points="58.6,2.1 50.7,14 44.9,5.3 43.2,5.3 50.7,16.4 60.3,2.1 "/>
<polygon class="st0" points="56.6,2.1 54.9,2.1 49.9,9.6 50.7,10.9 "/>
</svg>