<svg xmlns="http://www.w3.org/2000/svg" xmlns:xlink="http://www.w3.org/1999/xlink" version="1.1" id="Layer_2" x="0px" y="0px" viewBox="0 0 130 19.2" style="enable-background:new 0 0 130 19.2;" xml:space="preserve">
<style type="text/css">
	.st0{fill:#DBD9D7;}
</style>
<g>
	<polygon class="st0" points="14.3,12.2 14.3,12.2 8.2,6.1 14.3,0 8.2,0 2,6.1 5.1,9.2 8.2,12.2 11.3,15.2  "/>
	<polygon class="st0" points="19.2,9.2 16.1,6.1 13,3.1 10,6.1 16.1,12.2 16.1,12.2 16.1,12.2 10,18.3 16.1,18.3 19.2,15.3    22.3,12.2  "/>
</g>
<g>
	<path class="st0" d="M30,6.1c-0.9,0-1.6,0.3-2.2,0.9c-0.5,0.6-0.8,1.4-0.8,2.5s0.3,1.9,0.8,2.5c0.5,0.6,1.2,0.9,2.2,0.9   c0.6,0,1.2-0.1,2-0.3v0.9c-0.6,0.2-1.3,0.3-2.1,0.3c-1.2,0-2.2-0.3-2.9-1.1c-0.7-0.8-1-1.9-1-3.2c0-0.9,0.1-1.6,0.5-2.3   c0.3-0.6,0.8-1.2,1.4-1.5c0.6-0.3,1.3-0.5,2.2-0.5c0.9,0,1.6,0.1,2.3,0.5l-0.4,0.8C31.2,6.3,30.6,6.1,30,6.1z"/>
	<path class="st0" d="M38.5,11.5c0,0.8-0.3,1.3-0.8,1.7c-0.5,0.4-1.2,0.6-2.2,0.6c-1,0-1.8-0.1-2.3-0.4v-1c0.3,0.1,0.8,0.3,1.1,0.3   s0.9,0.2,1.3,0.2c0.7,0,1.2-0.1,1.4-0.3c0.3-0.3,0.5-0.6,0.5-1c0-0.3-0.1-0.5-0.2-0.7c-0.1-0.2-0.3-0.3-0.6-0.5   c-0.3-0.1-0.7-0.3-1.2-0.5c-0.8-0.3-1.4-0.6-1.6-1c-0.3-0.4-0.5-0.9-0.5-1.5s0.3-1.2,0.8-1.6c0.5-0.4,1.2-0.5,1.9-0.5   c0.8,0,1.6,0.1,2.3,0.5l-0.3,0.8c-0.7-0.3-1.4-0.4-2.1-0.4c-0.5,0-0.9,0.1-1.2,0.3c-0.3,0.2-0.4,0.5-0.4,1c0,0.3,0.1,0.5,0.1,0.7   c0.1,0.2,0.3,0.3,0.5,0.5c0.3,0.1,0.6,0.3,1.2,0.5c0.9,0.3,1.5,0.7,1.9,1C38.3,10.5,38.5,11,38.5,11.5z"/>
	<path class="st0" d="M45,11.5c0,0.8-0.3,1.3-0.8,1.7c-0.5,0.4-1.2,0.6-2.2,0.6c-1,0-1.8-0.1-2.3-0.4v-1c0.3,0.1,0.8,0.3,1.1,0.3   c0.3,0.1,0.8,0.1,1.2,0.1c0.7,0,1.2-0.1,1.4-0.3c0.3-0.3,0.5-0.6,0.5-1c0-0.3-0.1-0.5-0.2-0.7c-0.1-0.2-0.3-0.3-0.6-0.5   c-0.3-0.1-0.7-0.3-1.2-0.5c-0.8-0.3-1.4-0.6-1.6-1c-0.3-0.4-0.5-0.9-0.5-1.5s0.3-1.2,0.8-1.6c0.5-0.4,1.2-0.5,1.9-0.5   c0.8,0,1.6,0.1,2.3,0.5l-0.2,1c-0.7-0.3-1.4-0.4-2.1-0.4c-0.5,0-0.9,0.1-1.2,0.3c-0.3,0.2-0.4,0.5-0.4,1c0,0.3,0.1,0.5,0.1,0.7   c0.1,0.2,0.3,0.3,0.5,0.5c0.3,0.1,0.6,0.3,1.2,0.5c0.9,0.3,1.5,0.7,1.9,1C44.8,10.5,45,11,45,11.5z"/>
	<path class="st0" d="M53.6,9.4c0,1.4-0.4,2.5-1.2,3.2c-0.8,0.8-1.9,1.2-3.3,1.2h-2.7V5.3h2.9c1.4,0,2.4,0.3,3.2,1   C53.2,7.1,53.6,8.1,53.6,9.4z M51.2,9.5c0-0.8-0.1-1.4-0.5-1.7c-0.3-0.3-0.8-0.5-1.4-0.5h-0.7v4.7h0.5c0.7,0,1.2-0.2,1.5-0.6   C51.1,10.9,51.2,10.3,51.2,9.5z"/>
	<path class="st0" d="M58.1,13.9c-1.1,0-1.9-0.3-2.5-0.9c-0.6-0.5-0.9-1.4-0.9-2.5S55,8.6,55.5,8c0.5-0.6,1.4-0.9,2.4-0.9   c1,0,1.7,0.3,2.3,0.8S61,9.1,61,10.1v1h-4c0,0.3,0.1,0.6,0.4,0.9c0.3,0.2,0.6,0.3,1,0.3s0.8-0.1,1.1-0.1c0.3-0.1,0.7-0.2,1.1-0.4   v1.6c-0.3,0.2-0.7,0.3-1.1,0.3C59.1,13.8,58.6,13.9,58.1,13.9z M58,8.7c-0.3,0-0.5,0.1-0.7,0.3C57.1,9.1,57,9.4,57,9.7h1.9   c0-0.3-0.1-0.5-0.3-0.8C58.5,8.8,58.3,8.7,58,8.7z"/>
	<path class="st0" d="M67.2,11.8c0,0.7-0.2,1.2-0.7,1.6c-0.5,0.3-1.2,0.5-2.1,0.5c-0.5,0-0.9,0-1.2-0.1c-0.3-0.1-0.8-0.1-1.1-0.3   v-1.8c0.3,0.1,0.8,0.3,1.2,0.4c0.4,0.1,0.8,0.1,1.1,0.1c0.5,0,0.8-0.1,0.8-0.3c0-0.1-0.1-0.2-0.2-0.3c-0.1-0.1-0.5-0.3-1.2-0.5   c-0.6-0.3-1-0.5-1.2-0.8c-0.2-0.3-0.3-0.7-0.3-1.2c0-0.6,0.2-1.1,0.7-1.4s1.1-0.5,2-0.5c0.4,0,0.8,0.1,1.2,0.1   c0.4,0.1,0.8,0.2,1.2,0.4l-0.6,1.4c-0.3-0.1-0.6-0.3-1-0.3s-0.6-0.1-0.8-0.1c-0.3,0-0.5,0.1-0.5,0.3c0,0.1,0.1,0.2,0.2,0.3   c0.1,0.1,0.5,0.2,1.1,0.5c0.5,0.2,0.8,0.3,1,0.5s0.4,0.4,0.5,0.6C67.2,11.1,67.2,11.4,67.2,11.8z"/>
	<path class="st0" d="M68.5,5.6c0-0.3,0.1-0.6,0.3-0.8c0.2-0.1,0.5-0.3,0.9-0.3c0.4,0,0.8,0.1,0.9,0.3c0.2,0.1,0.3,0.4,0.3,0.8   c0,0.7-0.4,1-1.2,1C68.9,6.6,68.5,6.3,68.5,5.6z M70.8,13.8h-2.3V7.3h2.3V13.8z"/>
	<path class="st0" d="M78.5,7.3v1.1l-0.9,0.3c0.1,0.2,0.2,0.5,0.2,0.8c0,0.7-0.3,1.2-0.8,1.6c-0.5,0.4-1.2,0.5-2.2,0.5   c-0.3,0-0.4,0-0.5-0.1c-0.1,0.1-0.1,0.2-0.1,0.3c0,0.1,0.1,0.2,0.3,0.3s0.4,0.1,0.7,0.1h1.1c1.4,0,2.2,0.6,2.2,1.9   c0,0.8-0.3,1.4-1,1.9c-0.7,0.4-1.6,0.7-2.9,0.7c-0.9,0-1.6-0.1-2.1-0.5c-0.5-0.3-0.8-0.8-0.8-1.3c0-0.8,0.5-1.3,1.4-1.5   c-0.2-0.1-0.3-0.2-0.5-0.4c-0.1-0.2-0.2-0.3-0.2-0.5s0.1-0.4,0.1-0.5c0.1-0.1,0.3-0.3,0.7-0.5c-0.3-0.1-0.6-0.4-0.8-0.7   c-0.2-0.3-0.3-0.7-0.3-1.2c0-0.7,0.3-1.2,0.8-1.6s1.2-0.6,2.1-0.6c0.1,0,0.3,0,0.6,0.1c0.3,0.1,0.5,0.1,0.6,0.1L78.5,7.3z    M73.6,14.6c0,0.2,0.1,0.3,0.3,0.5s0.5,0.1,0.8,0.1c0.5,0,1-0.1,1.3-0.2c0.3-0.1,0.5-0.3,0.5-0.5c0-0.2-0.1-0.3-0.3-0.3   S75.7,14,75.3,14h-0.9c-0.3,0-0.4,0.1-0.6,0.1C73.7,14.3,73.6,14.4,73.6,14.6z M74.3,9.4c0,0.7,0.2,1,0.7,1c0.2,0,0.4-0.1,0.5-0.3   c0.1-0.1,0.2-0.4,0.2-0.8c0-0.7-0.2-1-0.7-1S74.3,8.7,74.3,9.4z"/>
	<path class="st0" d="M83.6,13.8v-3.6c0-0.4-0.1-0.8-0.2-1s-0.3-0.3-0.6-0.3c-0.4,0-0.7,0.1-0.8,0.5c-0.1,0.3-0.3,0.8-0.3,1.6v2.9   h-2.3V7.3h1.7l0.3,0.8h0.1c0.2-0.3,0.5-0.5,0.8-0.7c0.3-0.1,0.8-0.2,1.2-0.2c0.8,0,1.3,0.2,1.7,0.6c0.4,0.4,0.6,1,0.6,1.8v4.2h-2.3   V13.8z"/>
	<path class="st0" d="M93,13.8l-1-2.7h-3.4l-1,2.7h-1L90,5.3h0.8l3.3,8.4H93z M91.7,10.2l-1-2.6c-0.1-0.3-0.3-0.8-0.4-1.2   c-0.1,0.3-0.2,0.8-0.3,1.2l-1,2.6H91.7z"/>
	<path class="st0" d="M100.2,13.8l-1.2-3.7c-0.1-0.2-0.2-0.8-0.4-1.5l0,0c-0.1,0.7-0.3,1.2-0.4,1.6l-1.2,3.7h-1.2l-1.7-6.3h1   c0.4,1.6,0.7,2.8,1,3.6c0.2,0.8,0.3,1.4,0.3,1.6h0.1c0.1-0.2,0.1-0.5,0.2-0.8c0.1-0.3,0.2-0.6,0.3-0.8l1.2-3.6h1l1.1,3.6   c0.2,0.7,0.3,1.2,0.4,1.6h0.1c0-0.1,0.1-0.3,0.1-0.6c0.1-0.3,0.5-1.9,1.2-4.7h1l-1.7,6.3L100.2,13.8L100.2,13.8z"/>
	<path class="st0" d="M108.1,13.8l-0.2-0.9h-0.1c-0.3,0.4-0.6,0.7-1,0.8s-0.7,0.2-1.2,0.2c-0.6,0-1.1-0.1-1.4-0.5   c-0.3-0.3-0.5-0.8-0.5-1.4c0-1.3,1-1.9,3.1-2l1.1-0.1V9.6c0-0.5-0.1-0.9-0.3-1.1s-0.5-0.3-1-0.3c-0.5,0-1.1,0.1-1.8,0.5l-0.3-0.8   c0.3-0.1,0.6-0.3,1-0.4c0.3-0.1,0.8-0.1,1.1-0.1c0.8,0,1.3,0.1,1.6,0.5c0.3,0.3,0.5,0.9,0.5,1.6v4.3L108.1,13.8L108.1,13.8z    M106,13.1c0.6,0,1-0.1,1.4-0.5c0.3-0.3,0.5-0.8,0.5-1.4v-0.5l-1,0.1c-0.8,0-1.3,0.1-1.6,0.3c-0.3,0.2-0.5,0.5-0.5,1   c0,0.3,0.1,0.6,0.3,0.8C105.3,13,105.6,13.1,106,13.1z"/>
	<path class="st0" d="M113.7,7.3c0.3,0,0.5,0,0.8,0.1l-0.1,0.9c-0.3-0.1-0.5-0.1-0.7-0.1c-0.5,0-1,0.2-1.3,0.6   c-0.3,0.4-0.5,1-0.5,1.6v3.4h-1V7.5h0.8l0.1,1.2h0.1c0.2-0.4,0.5-0.8,0.8-1C112.9,7.5,113.2,7.3,113.7,7.3z"/>
	<path class="st0" d="M119.9,13L119.9,13c-0.5,0.6-1.2,1-2.1,1c-0.8,0-1.4-0.3-1.9-0.8c-0.5-0.5-0.7-1.4-0.7-2.4s0.2-1.9,0.7-2.4   s1.1-0.9,1.9-0.9c0.8,0,1.5,0.3,2,1h0.1l-0.1-0.5V7.5V4.8h1v9H120L119.9,13z M118,13.1c0.7,0,1.1-0.2,1.4-0.5   c0.3-0.3,0.4-1,0.4-1.7v-0.2c0-0.9-0.1-1.5-0.5-1.9c-0.3-0.4-0.8-0.5-1.4-0.5c-0.5,0-1,0.2-1.3,0.7c-0.3,0.4-0.5,1-0.5,1.9   s0.1,1.4,0.4,1.9C116.9,12.9,117.4,13.1,118,13.1z"/>
	<path class="st0" d="M126.9,12.1c0,0.6-0.2,1-0.7,1.4c-0.5,0.3-1,0.5-1.9,0.5c-0.8,0-1.5-0.1-2-0.4v-0.9c0.3,0.1,0.6,0.3,1,0.3   s0.7,0.1,1,0.1c0.5,0,0.9-0.1,1.2-0.2c0.3-0.1,0.4-0.4,0.4-0.8c0-0.3-0.1-0.5-0.3-0.6c-0.2-0.2-0.6-0.4-1.2-0.6   c-0.6-0.2-1-0.4-1.2-0.5c-0.3-0.1-0.4-0.3-0.5-0.5c-0.1-0.2-0.2-0.5-0.2-0.8c0-0.5,0.2-0.9,0.6-1.2c0.4-0.3,1-0.5,1.7-0.5   c0.7,0,1.4,0.1,2,0.4l-0.3,0.8c-0.6-0.3-1.2-0.4-1.7-0.4s-0.8,0.1-1,0.2c-0.2,0.1-0.3,0.3-0.3,0.6c0,0.1,0.1,0.3,0.1,0.4   c0.1,0.1,0.2,0.2,0.4,0.3c0.2,0.1,0.5,0.3,1.1,0.5c0.8,0.3,1.2,0.5,1.5,0.8C126.7,11.3,126.9,11.7,126.9,12.1z"/>
</g>
</svg>