<svg id="eTeccTools" xmlns="http://www.w3.org/2000/svg" viewBox="0 0 690 397" class="center-block"><path d="M257.5,75.7a24,24,0,0,1-6.9,2.1l13,74.4a68.9,68.9,0,0,0,24.3-6.5c13.6-6.4,19-10.9,25-16.9L260.7,74S260.7,74.2,257.5,75.7Zm20.2,255.4L243.8,365c-2,2.2-9.1,9.1-19.5,9.5-7.4.3-14.2-2.7-20.4-8.9s-9.1-13-8.8-20.3c.4-10.4,7.4-17.5,9.7-19.5l57.6-57.6m66.8-64.5M283.6,247l-11.5-64.8c7.8-1,19-3.7,32.6-10.1,11.1-5.2,18.2-8.8,29.4-17.6L350,170a3.1,3.1,0,0,0,2.2.9h.7a11.7,11.7,0,0,0,.9,2.2l-20.2,20.2a47.5,47.5,0,0,0-6.3,7.9l-.3.5-.3.5c-.8,1.3-1.4,2.6-2.1,3.9l-41,41m-5.9,84.1,3.2,12.8c.1.2.1.4.2.6l12.3,32.7a5.4,5.4,0,0,0,5.1,3.5h.9l1.4-.4a5.3,5.3,0,0,0,3.1-4.8l.2-9.9a4.1,4.1,0,0,0-.1-1.1l-8.8-50.7m0,0,67.2-67.2h.6a12.5,12.5,0,0,0,5.1-.4l1.7-.7,1.6-.8,1.3-1,.6-.6,1.6-1.6a12.4,12.4,0,0,0,2.9-4.6,13.8,13.8,0,0,0,3.3-2,11,11,0,0,0,2.6-3.5,11.9,11.9,0,0,0,3.8-2.5l.2-.2a10.8,10.8,0,0,0,2.5-3.9,11.3,11.3,0,0,0,3.4-2.3l.3-.3a10.2,10.2,0,0,0,2.6-4.2l.8-.4,10.5,10.5a9.7,9.7,0,0,0,5.9,2.8,3.3,3.3,0,0,0,.9,2.1l47.9,46.7a5.5,5.5,0,0,0,3.9,1.6,5.9,5.9,0,0,0,2.3-.5l.8-.4a5.3,5.3,0,0,0,1.8-6.8l-9.7-20.5a5,5,0,0,0-.8-1.2l-29-33.5-.2-.2,1.3-1.3a9.1,9.1,0,0,0,1.7-2.3,1,1,0,0,0,.5-.4,9,9,0,0,0,10.1-.8,8.7,8.7,0,0,0,2.9-4.6,9.2,9.2,0,0,0,5.7-3.9l.4-.6a11.4,11.4,0,0,0,1-1.9,9.4,9.4,0,0,0,4.7-3.6l.2-.4a8.8,8.8,0,0,0,.7-8.7l-.3-.6a20.9,20.9,0,0,1,5.6-2.8c4.5-1.4,9.4-1.1,14.6.8h.2c1.5.5,9.1,2.8,16-1.2h.2a75.3,75.3,0,0,1,7.3,4.1,8.8,8.8,0,0,0,9.1.3,8.4,8.4,0,0,0,2.3-1.8l7.7-7.7a10.2,10.2,0,0,0,0-14.3l-34.7-34.7a21.7,21.7,0,0,0-2.9-2.4l9.6-9.6.6.3,34.5,34.5a12,12,0,0,0,17,0l8.5-8.5.4-.5.5-.4.3-.3a8.1,8.1,0,0,0,2.2-10.2L531,78.5a64.1,64.1,0,0,0-13.8-22,33.4,33.4,0,0,0-22-9.7c-6.7-.3-16.6,1.4-26.1,10.9L434.9,91.9A12,12,0,0,0,420.8,94l-51.7,51.7-5.2-6a64,64,0,0,0-15.1-26.1c-7.4-9.2-19.3-13.4-23.7-14.7-21.9-17.9-31.3-30-33-32.1-3.2-6.5-8.5-14.1-16.6-16.1A28.2,28.2,0,0,0,272.8,40a29.2,29.2,0,0,0-26.3-16.6,27.7,27.7,0,0,0-12.3,2.8,28.9,28.9,0,0,0-13.8,38.5,31.1,31.1,0,0,0,6.4,8.8c-4,8.5-4.3,18.3-1,28.5a52.9,52.9,0,0,0,7.2,14.3c5.9,16.3,4.5,28.5,2.6,33.6-26.9-3.3-56-28.1-71.2-42.9a5.4,5.4,0,0,0-3.8-1.5h-.5l-25.8,2.4a6.1,6.1,0,0,0-1.8.5,4.9,4.9,0,0,0-2.6,2.7,5.5,5.5,0,0,0,.5,5.4c.5.7,11.8,16.1,31.6,32.1,17.6,14.2,45.5,31.3,79.5,33.8l20.9,85.8" fill="none" class="tool-outline tool-outline-move" stroke-width="3" stroke="#e9b370"></path> <path id="tools" d="M456.9,255.4l9.7,20.5-45.2-47.4.5-.4L428,222ZM252.3,60.7a11.5,11.5,0,0,0,4.5-14.8,11.8,11.8,0,0,0-15.5-5.5l-1.1.6a11.5,11.5,0,0,0,10.9,20.3ZM418.1,230.4l34.4,34.8-33.7-35ZM166.3,123l-1.2,14.6h.1l.8.7,1.1-14.5Zm99.5,54.4,32.9,188-.2,9.9-12.4-32.8L245.7,177.1c-66.4-2.5-111-63.9-111-63.9l25.8-2.4c38.6,37.6,65.7,44.6,80,44.9l-.6-2.3a23.6,23.6,0,0,0,1.7-5c5.1-4.8,11.3-14.6,6.5-32.2C244.7,103.7,236.7,95.3,229,90a19.2,19.2,0,0,1,0-2.4,44,44,0,0,1,9.2-1.6l-9.1-1.3.3-2.2a41.6,41.6,0,0,1,7.8-.7l-7.4-.9.6-2.1c3.6-.7,6.2-1,6.2-1l-5.5-.6a31.4,31.4,0,0,1,2.7-5.1h0a23.5,23.5,0,0,1,.6-39.8l2.2-1.2a23.6,23.6,0,0,1,33.3,24.8,12.4,12.4,0,0,1,6.8,1.1l-3.6,6.5,6.4-4.7c.6.4,1.1,1,1.7,1.5l-4.6,6.8,6.5-4.7,1.3,1.7c-1.8,1.6-3.3,3.3-3.7,5.1l5.3-2.5.2.3c-.7,5.4-.4,10.1,2,12.7,5.4,6.1,15.9,17.1,22.5,23.8a27.9,27.9,0,0,0,20.2,8.4,35.6,35.6,0,0,0,7.6-.9,33,33,0,0,1,6.4,6,59.6,59.6,0,0,1,14.3,25.1l6.2,7.2-3.5,3.5-6.4-7.4-.7-.9-.3-1.1a54.4,54.4,0,0,0-12.9-22.8l-.3-.2-.2-.3a26.4,26.4,0,0,0-3.7-3.8,42.1,42.1,0,0,1-6.2.5,31.9,31.9,0,0,1-10.2-1.5l4.4,4.7,3.3,3.5L340,136.3l.5-.4,3.2,3.4,15.5,16.3-3.2,3.2-.3.4-15.6-16.4-2.9,2.3,16.4,17.1a11.8,11.8,0,0,0-.7,2l-17.4-17.6a194.2,194.2,0,0,1-18.7,13C293,173.9,274.9,176.9,265.8,177.4Zm3.4-5.3h0Zm5.3-.8-7.4-12.1-4.9.3,7.3,12.5Zm1.1-.2,5.1-1.2-7.4-11.7q-3,.6-6,.9h1Zm11.3-3.1-7.5-11.3-5.1,1.3,7.4,11.6Zm6.2-2.2-7.7-11.2-5.7,2,.6-.2,7.5,11.4Zm1-.4,5.4-2.3L291.6,152l-5.1,2.3h0Zm5.9-2.6-.3.2Zm5.9-2.9-8.2-11.2-5.2,2.8,7.9,11.1Zm6.4-3.6L303.7,145l-3.6,2.3-1.6.9,8.2,11.2Zm6.6-4.1-9-11.5c-1.9,1.5-3.9,2.8-5.8,4.1l.6-.4,8.6,11.4.8-.5ZM333,142l-.8.6L322,130.3l-.6.5-2.7,2.6h-.1l-1.9,1.7,9.6,11.9-.8.6-9.6-11.9c-1.7,1.5-3.5,2.9-5.3,4.3l9.1,11.6c4.1-2.7,8.3-5.7,12.4-9l1.2-1,.5-.4,2.8-2.3,2.3-1.9-11-12.9-2.9,3-1,1.1h.1l-1.8,1.7.4-.3ZM266.1,65.5a21.6,21.6,0,0,1-2.7,3.3l55.4,57.6,2.7-2.7L266.1,65.5Zm-24,5.7,5.6-.3a17.5,17.5,0,0,0,6.7-1.7l1.7-.9,1.5-1,1.1-.8,1-1a17.1,17.1,0,0,0,2.1-2.6l2.3-3.5.6-4.2a18.5,18.5,0,0,0-1.6-10.6,18.7,18.7,0,0,0-24.7-8.9l-1.7.9h0a18.4,18.4,0,0,0-.4,31.3l5.7,3.7Zm19.7,83.3c13.3-.3,25.6-5.4,35.8-11.5A117.2,117.2,0,0,0,317,128.1L260.6,71.2l-1.9,1.3-2.2,1.2a24.3,24.3,0,0,1-8.6,2.2Zm-53.6-2.4,3.8,13.2,3.4,1.1-4.1-13A20.5,20.5,0,0,1,208.2,152.1Zm-4.1-2,3.5,13.6,3.2,1.2L207,151.5h0ZM192,143l.6.4,2.5,14.5,3,1.6H198l-2.9-14.6Zm-12.9-9.3h0l.7,15,2.6,1.7-1.2-15.1Zm-.2,14.4.6.4ZM176,131.3l.3,15,2.5,1.8-.7-15.1h0Zm-17.3-15.2.4.4-2.4,13.6,2.1,2,2-14A13.4,13.4,0,0,0,158.7,116.1Zm-12.4,1.1-.5,1.6,1.8,2,1-3.8Zm-1.7.2,1.2,1.3-.7-.8.2-.6Zm5.7,6.2,1.7-6.9-2.2.2-1.3,4.7A16.2,16.2,0,0,0,150.3,123.6Zm.8.9,1.9,2,2.1-10.1-2.1.2Zm2.4,2.4-.2-.2Zm2.4,2.4,2.3-13.2-2,.2-2.3,11C154.6,127.9,155.2,128.6,155.9,129.3Zm13.2-3.8-7.3-6.6-2,14,2.2,2,1.6-14.3.9.8-1.6,14.3,2.3,1.9h.1l.8.7h0l2.3,1.9Zm.3,15.6,2.4,1.9.2-15h0l-1.9-1.6Zm5.8,4.4-.3-15.1-2-1.6h0l-.2,14.9Zm8.3,5.6,2.7,1.7-1.6-15-2.2-1.6h0Zm3.7,2.4,2.8,1.6-2.1-14.9-2.3-1.6Zm6.7,3.8-2.5-14.7L189,141l2.1,14.7Zm8.2,4-3.2-14.1h0l-2.7-1.6,2.9,14.3Zm4.3,1.9-3.5-13.8,1.1.6-3.8-2.1,3.2,13.9A20.9,20.9,0,0,0,206.4,163.2Zm10.1,3.7,3.5,1-4.3-12.6-3.8-1.6.6.3Zm8.3,2.3L220.3,157l-4.2-1.5.9.3,4.2,12.4Zm1.1.2,3.7.8-4.7-11.8-3.5-1Zm4.9,1.1,3.9.6-4.9-11.6-3.6-.8Zm9.1,1.2-5.2-11.4a23.8,23.8,0,0,1-3.7-.6l4.9,11.5Zm21,6.5-1-5.6,5.6-.3,2.9-.2-7.3-12.6h-3.5l-.7-4.2-3.2-18.1a28.1,28.1,0,0,1-4.4,9.7l14.2,25.5h-1.1L248.7,148a34.8,34.8,0,0,1-2.6,3h0l11.7,23.4h-1.1l-10.9-22a13.1,13.1,0,0,1-.5,1.5l.2.7,1.5,6.3h-1l5.5,11.5-.9.5-5.7-12h-4.4l-4.5-.3,5.1,11.4,4.2.3-5.6-11.5h1.1l5.5,11.4h3.4l.9,3.7,34.9,142.9ZM235.6,320.6l31.8-31.8,5.3,21.8-23.6,23.6-4.8,4.8-13.7,13.7s-6.2,7-13.4-.2-.2-13.4-.2-13.4l13.8-13.8Zm108.7-95.2c-7.2-7.2-13.4-.2-13.4-.2l-43.6,43.6,4,23.1,53.1-53.1C344.5,238.8,351.5,232.6,344.3,225.4Zm11.6-25.1s-7,6.2.2,13.4,13.4.2,13.4.2l18.6-18.6-13.7-13.6Zm197-60.2-.3.3-.5.4a1,1,0,0,1-.4.5l-8.5,8.5a5.1,5.1,0,0,1-7.1,0l-35.3-35.3-6-3.3-3,2.8-20.1,20.1,2.6-.5a11.2,11.2,0,0,1,10,3.1L519,171.4a3.1,3.1,0,0,1,0,4.4l-7.7,7.7-.8.6a1.9,1.9,0,0,1-1.9-.1,89.1,89.1,0,0,0-10.7-5.8,2.2,2.2,0,0,1-1.5.6,2.4,2.4,0,0,0-1.2,0c-4.6,3.9-11.3,1.7-11.6,1.6h0c-6.7-2.5-13.2-2.8-19.2-.9a28.4,28.4,0,0,0-10.6,6.3,4.9,4.9,0,0,1-2.7,1.3l.4.3.3.2a1.6,1.6,0,0,1,.5,1.1,15.3,15.3,0,0,1,2.5,3.9,1.7,1.7,0,0,1-.2,1.8l-.2.4a2.5,2.5,0,0,1-1.6,1,2.6,2.6,0,0,1-1.9-.4l-2.7-1.8a4.2,4.2,0,0,0-2,.6h.2a2.6,2.6,0,0,1,.5.9,13,13,0,0,1,1.9,3.3,1.9,1.9,0,0,1-.2,1.8l-.4.6a2.5,2.5,0,0,1-1.6,1,2.6,2.6,0,0,1-1.9-.4l-2.7-1.8a4.3,4.3,0,0,0-2.3.8l.3.2a1.6,1.6,0,0,1,.4.7h0a11.1,11.1,0,0,1,1.1,5.2,1.7,1.7,0,0,1-.7,1.3,1.8,1.8,0,0,1-1.4.4l-1.1-.4-2.7-1.9a3.4,3.4,0,0,0-2.2.3.9.9,0,0,1-.5.3l-1.4,1.4a3.4,3.4,0,0,1-2.7.9,3.6,3.6,0,0,1-1,3l-11.2,11.2a2.8,2.8,0,0,1-4,0l-17-17a4.4,4.4,0,0,1-5.6,5.6l-.9-.3.5.9a4.3,4.3,0,0,1-.8,4.9l-.3.3a4.2,4.2,0,0,1-5,.7l-.5-.3.5,1.5a4.2,4.2,0,0,1-1,4.3l-.2.2a4.1,4.1,0,0,1-4.6.9l-.6-.2a4,4,0,0,1-1,5,4.3,4.3,0,0,1-4.6.7l-1.2-.6.6,1.8a5.1,5.1,0,0,1-1.2,5l-1.6,1.6-.3.3-.5.4-.7.3a.9.9,0,0,1-.7.3,5.5,5.5,0,0,1-2.2.2l-3.5-.5a3.1,3.1,0,0,0-1.3.6l-65.5,65.5-.4-2.3,64.6-64.6a4.2,4.2,0,0,1,2.6-1.2l3.7.5a3.8,3.8,0,0,0,1.5-.1c-13.1-17.3-25.8-27.1-31.5-31a31.7,31.7,0,0,0-2.3,4.5l-46.3,46.7-.4-2.3L330.3,210a36.1,36.1,0,0,1,2.2-4.4l.3-.4c0-.2.1-.3.2-.5a34.5,34.5,0,0,1,5.4-6.7l24.8-24.8-2.5-2.5a5.1,5.1,0,0,1,0-7.1l64.9-64.9a5.1,5.1,0,0,1,7.1,0l2.5,2.5L474,62.4c7.7-7.7,15.6-9.1,20.8-8.8a26.8,26.8,0,0,1,17.4,7.7c7.9,7.9,11.8,18.5,12.3,19.8l28.7,56.6A2.1,2.1,0,0,1,552.9,140.1Zm-5.6-9.7h-4.6l3.4,3.4H549l.3.5-.3-.5h0Zm-2.1-4.3v.2l-6.5.2,3.4,3.4H547Zm-2.1-4v.3l-8.4.2,3.4,3.4,6.8-.2Zm-1.9-3.8-10.3.3,3.4,3.4,8.7-.3Zm-2.1-4-12.3.4,3.4,3.4,10.6-.3Zm-4.1-8.1-16.1.5,3.4,3.4,14.5-.4.3.6-14.2.4,3.4,3.4,12.6-.4Zm-2-4-18.1.5,3.4,3.4,16.4-.5ZM530.9,98v.2l-20,.6,3.4,3.4,18.4-.5Zm-2-3.9-21.9.6,3.4,3.4,20.3-.6Zm-2.1-4-23.8.6,3.4,3.4,22.2-.6ZM499,86.8l3.4,3.4,24.2-.7-1.7-3.4ZM522.8,82l-27.7.8,3.4,3.4,26.1-.8L522.8,82Zm-1.7-4.1-30,.9,3.4,3.4,28.1-.8h0Zm-4.5-8-33.5,1,3.4,3.4,32.2-.9.3.6-32,.9,3.4,3.4,30.3-.9.3.6-.3-.6h0c-.5-1-1.1-2.2-1.8-3.4h0l-.3-.6h0A17.5,17.5,0,0,0,516.6,69.9Zm-39.5-7.6h.1l32-.9.7.6-.7-.6h0A25.5,25.5,0,0,0,504,58l-21.6.6,1.3-.7,18.9-.5a23.5,23.5,0,0,0-18.9.5h0l-1.3.7h0a24.3,24.3,0,0,0-5.3,3.7Zm-4.3,4.1,40.3-1.2-2.3-2.5-.9-.9-33.4,1,.4-.4-.5.4h0l-1.2,1.1Zm-37.2,37.3.3,1.2,1.7,1.7,36.9-36.9a5.3,5.3,0,0,1,7.5,0l.5.5,33.7-1c-.8-1.1-1.6-2.3-2.5-3.4h0l-.3-.4.3.4L472.2,67Zm61,73.4c-9.1-3.8-15.4-4.4-15.5-4.4l-.5-.4-14.6-34-4.3-5.9-27-27-.6-2.5-.5-.5h-.1L429,99.2h0a3.1,3.1,0,0,0-2.2.9l-.2.2,5.1,3.7-.6.8-5.2-3.8-1.6,1.6,5.1,3.7-.6.8-5.2-3.8-1.6,1.6,5.1,3.7-.6.8-5.2-3.8-1.6,1.6,5.1,3.7-.6.8-5.2-3.8-1.6,1.6,5.1,3.7-.6.8-5.2-3.8-1.6,1.6,5.1,3.7-.6.8-5.2-3.8-1.6,1.6,5.1,3.7-.6.8-5.2-3.8-1.6,1.6,5.1,3.7-.6.8-5.2-3.8-1.6,1.6,5.1,3.7-.6.8-5.2-3.8-1.6,1.6,5.1,3.7-.6.8-5.2-3.8-1.6,1.6,5.1,3.7-.6.8-5.2-3.8-1.6,1.6,5.1,3.7-.6.8-5.2-3.8-1.6,1.6,5.1,3.7-.6.8-5.2-3.8-1.6,1.6,5.1,3.7-.6.8-5.2-3.8-1.6,1.6,5.1,3.7-.6.8-5.2-3.8-1.6,1.6,5.1,3.7-.6.8-5.2-3.8-1.6,1.6,5.1,3.7-.6.8-5.2-3.8-1.6,1.6,5.1,3.7-.6.8-5.2-3.8-1.6,1.6,5.1,3.7-.6.8-5.2-3.8-1.6,1.6,5.1,3.7-.6.8-5.2-3.8-1.6,1.6,5.1,3.7-.6.8-5.2-3.8-1.5,1.5,5.1,3.7-.6.8-5.2-3.8-1.6,1.6,5.1,3.7-.6.8-5.2-3.8-1.6,1.6,5.1,3.7-.6.8-5.2-3.8-1.6,1.6,5.1,3.7-.6.8-5.2-3.8-1.6,1.6,5.1,3.7-.6.8-5.2-3.8-1.6,1.6,5.1,3.7-.6.8-5.2-3.8-1.6,1.6,5.1,3.7-.6.8-5.2-3.8-1.6,1.6,5.1,3.7-.6.8-5.2-3.8-.2.2a3.4,3.4,0,0,0-.9,1.8h0l4.5,3.3-.6.8-3.9-2.9h0a2.2,2.2,0,0,0,.8,1.3l3.8,3.8L339,199.7a39.8,39.8,0,0,0-5.1,6.4c5.7,3.9,18.6,13.8,31.9,31.4l.3-.2.2-.2,1.6-1.6a3.2,3.2,0,0,0,.8-3.1l-1.2-3.8a.9.9,0,0,1,1.3-1.1l3.1,1.5a2.1,2.1,0,0,0,2.5-.4h0a2.4,2.4,0,0,0,.5-2.9l-1.3-2.2a.9.9,0,0,1,1.2-1.3l3.2,1.4a2.3,2.3,0,0,0,2.6-.5l.2-.2a2.6,2.6,0,0,0,.6-2.4l-1.3-3.8a.9.9,0,0,1,1.4-1.1l2.6,1.4a2.3,2.3,0,0,0,2.7-.4l.3-.3a2.3,2.3,0,0,0,.4-2.7l-1.5-3a.9.9,0,0,1,1.2-1.3l3.2,1.1a2.7,2.7,0,0,0,2.7-.6h0a2.4,2.4,0,0,0,.4-3l-1.5-2.7a1,1,0,0,1,1-1.4,4.7,4.7,0,0,1,2.7,1.4l18.1,18.1a.9.9,0,0,0,1.3,0L426.3,211a1.6,1.6,0,0,0,0-2.2l-.9-.9,1.8-1.8,1.1,1.1a1.3,1.3,0,0,0,1.8,0l1.8-1.8h.1c1.3-1.3,4.2-.8,4.2-.8l3.1,2.1h.3a8.6,8.6,0,0,0-.9-4.3.1.1,0,0,0-.1-.1l-2.1-1.4c3.3-3.2,6-2.7,6.1-2.7l3.1,2.1a.7.7,0,0,0,.9-.2l.4-.6a10.5,10.5,0,0,0-1.7-2.9,1.1,1.1,0,0,1-.3-.7l-2.1-1.4c3.2-3,5.8-2.5,5.9-2.5l3.1,2.1a.7.7,0,0,0,.9-.2l.2-.4a13.2,13.2,0,0,0-2.3-3.5,1.2,1.2,0,0,1-.4-.9l-3.1-2.1-.4-.4,1.7-1.7a3.2,3.2,0,0,0,3.9-.3c4.3-4.1,15.3-11.9,31.7-5.7,0,0,6.3,2.2,10.1-1.6C494.4,177.1,495.2,176.9,496.6,177.1ZM466.8,137l14.8,34.5c2.2.3,13.9,2,28.1,11.1l.4-.3,7.7-7.7a1.3,1.3,0,0,0,0-1.8l-34.7-34.7a9.5,9.5,0,0,0-8.3-2.6Zm83.6,2.9L481.1,70.6a4,4,0,0,0-5.7,0l-36.8,36.8,24.1,24.3,3.8,5.2,24.1-24.2,4-3.8,7.5,4.1h0l35.5,35.5a3.1,3.1,0,0,0,4.4,0Zm1.2-1.2v-.2l-.3-.6h0l-1.7-3.4h-2.6l3.4,3.4h1ZM275.3,321l-37.9,37.9s-12.8,14.8-27.2.4.7-27.1.7-27.1l54-54-.5-2.1-54.7,54.7c-.8.7-7.1,6.4-7.5,14.7-.2,5.3,2.1,10.4,6.8,15.1s9.8,7,15.2,6.8c8.3-.3,14.1-6.6,14.7-7.3l37-37ZM462.4,93.8l-18.6,18.6L457.4,126,476,107.4s7-6.2-.2-13.4S462.4,93.8,462.4,93.8Zm-35.1,69.7,9.5,9.5-1.6,1.6-1.2-1.2a1.3,1.3,0,0,0-1.8,0l-1.8,1.8-3.8-2.6a.7.7,0,0,0-.9.2l-1.1,1.6a.7.7,0,0,0,.2.9l1.2.9s1.6,1.8-1.8,5.2l-3.8-2.6a.7.7,0,0,0-.9.2l-1.1,1.6a.7.7,0,0,0,.2.9l1.2.9s1.6,1.8-1.8,5.2l-.2.2-3.8-2.6a.7.7,0,0,0-.9.2L412,187a.7.7,0,0,0,.2.9l1.2.9h0s1.5,1.9.2,3.2l2.1,2.1-1.8,1.8-5.6-5.6.3-.3a3.2,3.2,0,0,0,.8-3.1l-1.2-3.8a.6.6,0,0,1,0-.6l.6-.6a.9.9,0,0,1,.7,0l3.1,1.5a2.1,2.1,0,0,0,2.5-.4h0a2.4,2.4,0,0,0,.5-2.9l-1.3-2.2a.9.9,0,0,1,1.2-1.3l3.2,1.4a2.3,2.3,0,0,0,2.6-.5l.2-.2a2.6,2.6,0,0,0,.6-2.4l-1.3-3.8a.9.9,0,0,1,1.4-1.1l2.6,1.4a2.3,2.3,0,0,0,2.7-.4l.3-.3a2.3,2.3,0,0,0,.4-2.7l-1.5-3a1.1,1.1,0,0,1,0-.8l.5-.5C427.2,163.5,427.3,163.5,427.3,163.5Zm-16.6,20.9.3.9.4-.6Zm.5,5-.3.6,1.1,1.1a1,1,0,0,1,.4-.5,2.1,2.1,0,0,0-.2-.6Zm6.5-6.4h-.1a4.5,4.5,0,0,1-1,1.4h-.2l1.3.9a3,3,0,0,0,.8-1.8Zm5.6-10.4v.4l.2-.2Zm.5,4.2a6.4,6.4,0,0,1-.8,1.4l1,.7a3.1,3.1,0,0,0,.7-1.5Zm5.2-4.9,1.2.8.7-.7a3.1,3.1,0,0,1,1.5-.8l-2.1-2.1a4.2,4.2,0,0,1-1.2,2.6Z" fill="#fff"></path></svg>