<?xml version="1.0" encoding="utf-8"?>
<!-- Generator: Adobe Illustrator 23.0.2, SVG Export Plug-In . SVG Version: 6.00 Build 0)  -->
<svg version="1.1" id="Layer_1" xmlns="http://www.w3.org/2000/svg" xmlns:xlink="http://www.w3.org/1999/xlink" x="0px" y="0px"
	 viewBox="0 0 2000.2 484.4" style="enable-background:new 0 0 2000.2 484.4;" xml:space="preserve">
<style type="text/css">
	.st0{fill:#E9B370;}
</style>
<g>
	<path class="st0" d="M11.6,166.9h83.7v20.3H34.1v31h58v20.3h-58v34.3h64.4v20.3H11.6L11.6,166.9L11.6,166.9z"/>
	<path class="st0" d="M163.8,187.2h-38.7v-20.3H225v20.3h-38.7v106h-22.5V187.2z"/>
	<path class="st0" d="M254.6,166.9h83.7v20.3h-61.2v31h58v20.3h-58v34.3h64.4v20.3h-86.9L254.6,166.9L254.6,166.9z"/>
	<path class="st0" d="M464.6,196.5c-4.6-5-9.1-8.3-13.5-10c-4.3-1.7-8.7-2.5-13.1-2.5c-6.5,0-12.5,1.2-17.8,3.5s-9.8,5.5-13.6,9.6
		c-3.8,4.1-6.8,8.9-8.8,14.4c-2.1,5.5-3.1,11.4-3.1,17.7c0,6.8,1,13,3.1,18.7s5,10.6,8.8,14.8c3.8,4.2,8.4,7.4,13.6,9.8
		c5.3,2.4,11.2,3.6,17.8,3.6c5.1,0,10.1-1.2,14.9-3.7c4.8-2.4,9.3-6.3,13.5-11.7l18.6,13.2c-5.7,7.9-12.7,13.6-20.9,17.1
		c-8.2,3.6-16.9,5.4-26.2,5.4c-9.8,0-18.7-1.6-26.9-4.7c-8.1-3.2-15.2-7.6-21.1-13.4s-10.5-12.7-13.8-20.8c-3.3-8.1-5-17.1-5-26.9
		c0-10.1,1.7-19.3,5-27.6s7.9-15.3,13.8-21.1s12.9-10.3,21.1-13.5c8.1-3.2,17.1-4.7,26.9-4.7c8.6,0,16.5,1.5,23.8,4.5
		s14.1,8.2,20.4,15.4L464.6,196.5z"/>
	<path class="st0" d="M601.1,196.5c-4.6-5-9.1-8.3-13.5-10c-4.3-1.7-8.7-2.5-13.1-2.5c-6.5,0-12.5,1.2-17.8,3.5s-9.8,5.5-13.6,9.6
		s-6.8,8.9-8.8,14.4c-2.1,5.5-3.1,11.4-3.1,17.7c0,6.8,1,13,3.1,18.7s5,10.6,8.8,14.8c3.8,4.2,8.4,7.4,13.6,9.8
		c5.3,2.4,11.2,3.6,17.8,3.6c5.1,0,10.1-1.2,14.9-3.7c4.8-2.4,9.3-6.3,13.5-11.7l18.6,13.2c-5.7,7.9-12.7,13.6-20.9,17.1
		c-8.2,3.6-16.9,5.4-26.2,5.4c-9.8,0-18.7-1.6-26.9-4.7c-8.1-3.2-15.2-7.6-21.1-13.4c-5.9-5.8-10.5-12.7-13.8-20.8
		c-3.3-8.1-5-17.1-5-26.9c0-10.1,1.7-19.3,5-27.6s7.9-15.3,13.8-21.1c5.9-5.8,12.9-10.3,21.1-13.5c8.1-3.2,17.1-4.7,26.9-4.7
		c8.6,0,16.5,1.5,23.8,4.5s14.1,8.2,20.4,15.4L601.1,196.5z"/>
	<path class="st0" d="M717.4,166.9h22.5v126.3h-22.5V166.9z"/>
	<path class="st0" d="M781.8,166.9h29.8l61.2,93.8h0.4v-93.8h22.5v126.3h-28.5l-62.4-96.9h-0.4v96.9h-22.5L781.8,166.9L781.8,166.9z
		"/>
	<path class="st0" d="M964,187.2h-38.7v-20.3h99.9v20.3h-38.7v106H964V187.2z"/>
	<path class="st0" d="M1054.8,166.9h83.7v20.3h-61.2v31h58v20.3h-58v34.3h64.4v20.3h-86.9V166.9z"/>
	<path class="st0" d="M1178.1,166.9h43.9c6.1,0,11.9,0.6,17.6,1.7c5.6,1.1,10.7,3.1,15.1,5.8s7.9,6.4,10.5,11.1
		c2.6,4.6,3.9,10.5,3.9,17.7c0,9.2-2.5,16.8-7.6,23s-12.3,9.9-21.7,11.2l33.5,55.8h-27.1l-29.3-53.5h-16.4v53.5H1178L1178.1,166.9
		L1178.1,166.9z M1218,220.4c3.2,0,6.4-0.1,9.6-0.4c3.2-0.3,6.2-1,8.8-2.1c2.7-1.1,4.8-2.9,6.5-5.2s2.5-5.6,2.5-9.7
		c0-3.7-0.8-6.7-2.3-8.9c-1.5-2.3-3.6-4-6.1-5.1s-5.3-1.9-8.3-2.2c-3-0.4-6-0.5-8.8-0.5h-19.4v34.3h17.5V220.4z"/>
	<path class="st0" d="M1345.6,166.9h19.4l54.4,126.3h-25.7l-11.8-28.9h-54.8l-11.4,28.9h-25.2L1345.6,166.9z M1374.2,245l-19.4-51.4
		L1335,245H1374.2z"/>
	<path class="st0" d="M1534.5,196.5c-4.6-5-9.1-8.3-13.5-10c-4.3-1.7-8.7-2.5-13.1-2.5c-6.5,0-12.5,1.2-17.8,3.5s-9.8,5.5-13.6,9.6
		c-3.8,4.1-6.8,8.9-8.8,14.4c-2.1,5.5-3.1,11.4-3.1,17.7c0,6.8,1,13,3.1,18.7s5,10.6,8.8,14.8c3.8,4.2,8.4,7.4,13.6,9.8
		c5.3,2.4,11.2,3.6,17.8,3.6c5.1,0,10.1-1.2,14.9-3.7c4.8-2.4,9.3-6.3,13.5-11.7l18.6,13.2c-5.7,7.9-12.7,13.6-20.9,17.1
		c-8.2,3.6-16.9,5.4-26.2,5.4c-9.8,0-18.7-1.6-26.9-4.7c-8.1-3.2-15.2-7.6-21.1-13.4s-10.5-12.7-13.8-20.8c-3.3-8.1-5-17.1-5-26.9
		c0-10.1,1.7-19.3,5-27.6s7.9-15.3,13.8-21.1s12.9-10.3,21.1-13.5c8.1-3.2,17.1-4.7,26.9-4.7c8.6,0,16.5,1.5,23.8,4.5
		s14.1,8.2,20.4,15.4L1534.5,196.5z"/>
	<path class="st0" d="M1610.2,187.2h-38.7v-20.3h99.9v20.3h-38.7v106h-22.5L1610.2,187.2L1610.2,187.2z"/>
	<path class="st0" d="M1700.5,166.9h22.5v126.3h-22.5V166.9z"/>
	<path class="st0" d="M1750.2,166.9h25.9l34.4,95.4l35.5-95.4h24.3l-51,126.3h-19.4L1750.2,166.9z"/>
	<path class="st0" d="M1898.1,166.9h83.7v20.3h-61.2v31h58v20.3h-58v34.3h64.4v20.3h-86.9V166.9z"/>
</g>
</svg>
