<?xml version="1.0" encoding="utf-8"?>
<!-- Generator: Adobe Illustrator 23.0.1, SVG Export Plug-In . SVG Version: 6.00 Build 0)  -->
<svg version="1.1" id="Layer_1" xmlns="http://www.w3.org/2000/svg" xmlns:xlink="http://www.w3.org/1999/xlink" x="0px" y="0px"
	 viewBox="0 0 365 365" style="enable-background:new 0 0 365 365;" xml:space="preserve">
<style type="text/css">
	.st0{fill:#E9B370;}
</style>
<path class="st0" d="M58.2,211.8c21.4,96.1,115.1,160.9,207.2,138c-43.8,13.7-92.1,20.5-136.1,2.4c-63.8-25.4-110.2-84.8-117-154
	C8,136.3,33.3,76.3,81.5,37.3C127.4,0.8,187.4-6.6,242.5,5.1C132.3-6.7,33.3,99.2,58.2,211.8 M353.2,180.2c0-11.7-1-24.9-3.9-36.5
	c-9.7-40-38.1-72.7-76.5-86.2c-40-12.7-85.3-6.3-117.5,19c-2.9,2.4-3.9,2.9-4.9,3.9c2.4-1.4,4.9-2.9,7.3-3.9
	c39.5-10.8,83.8,0,111.2,21c11.3,8.7,20,19,23.8,30.7c1.9,4.9,2.9,10.2,2.9,15.6c-59.5,7.8-118.5,15.6-178,21
	C196.1,168.4,274.6,180.2,353.2,180.2 M160.1,283.4c53.7,38.6,131.2,24.4,170.2-30.7c9.7-13.7,19-43.8,19-43.8s-56.1,20.5-57,21
	C268.7,277.7,209.8,302.5,160.1,283.4"/>
</svg>
